<svg width="24" height="16" viewBox="0 0 24 16" fill="none" xmlns="http://www.w3.org/2000/svg">
<path fill-rule="evenodd" clip-rule="evenodd" d="M1.2 0H22.8C23.1183 0 23.4235 0.131696 23.6485 0.366117C23.8736 0.600537 24 0.918479 24 1.25V14.75C24 14.9142 23.969 15.0767 23.9087 15.2284C23.8484 15.38 23.76 15.5178 23.6485 15.6339C23.5371 15.75 23.4048 15.842 23.2592 15.9049C23.1136 15.9677 22.9576 16 22.8 16H1.2C1.04241 16 0.88637 15.9677 0.74078 15.9049C0.595189 15.842 0.462902 15.75 0.351472 15.6339C0.240042 15.5178 0.15165 15.38 0.0913445 15.2284C0.0310388 15.0767 0 14.9142 0 14.75V1.25C0 0.918479 0.126428 0.600537 0.351472 0.366117C0.576515 0.131696 0.88174 0 1.2 0Z" fill="#FA8C16"/>
<path fill-rule="evenodd" clip-rule="evenodd" d="M0 1.43994H24V4.55994H0V1.43994Z" fill="#2C3E50"/>
<path fill-rule="evenodd" clip-rule="evenodd" d="M1.91992 6H16.7999V9.36H1.91992V6ZM18.9599 6H22.3199C22.5109 6 22.694 6.07586 22.829 6.21088C22.9641 6.34591 23.0399 6.52904 23.0399 6.72V8.64C23.0399 8.83096 22.9641 9.01409 22.829 9.14912C22.694 9.28414 22.5109 9.36 22.3199 9.36H18.9599C18.769 9.36 18.5858 9.28414 18.4508 9.14912C18.3158 9.01409 18.2399 8.83096 18.2399 8.64V6.72C18.2399 6.52904 18.3158 6.34591 18.4508 6.21088C18.5858 6.07586 18.769 6 18.9599 6Z" fill="#ECF0F1"/>
<path fill-rule="evenodd" clip-rule="evenodd" d="M22.7872 6.17627L18.4922 9.18299C18.6216 9.29636 18.7877 9.3591 18.9597 9.35963H22.3197C22.5107 9.35963 22.6938 9.28377 22.8288 9.14875C22.9639 9.01372 23.0397 8.83059 23.0397 8.63963V6.71963C23.0394 6.61619 23.0167 6.51404 22.9731 6.42024C22.9295 6.32643 22.8661 6.24319 22.7872 6.17627Z" fill="white"/>
<path fill-rule="evenodd" clip-rule="evenodd" d="M13.3197 12.96H22.4397C22.5989 12.96 22.7515 13.0232 22.864 13.1357C22.9765 13.2482 23.0397 13.4008 23.0397 13.56C23.0397 13.7191 22.9765 13.8717 22.864 13.9842C22.7515 14.0967 22.5989 14.16 22.4397 14.16H13.3197C13.1606 14.16 13.008 14.0967 12.8955 13.9842C12.7829 13.8717 12.7197 13.7191 12.7197 13.56C12.7197 13.4008 12.7829 13.2482 12.8955 13.1357C13.008 13.0232 13.1606 12.96 13.3197 12.96Z" fill="#C46C0E"/>
</svg>
