<svg width="177" height="154" viewBox="0 0 177 154" fill="none" xmlns="http://www.w3.org/2000/svg">
<mask id="mask0" mask-type="alpha" maskUnits="userSpaceOnUse" x="0" y="0" width="177" height="154">
<rect width="177" height="153.787" fill="#C4C4C4"/>
</mask>
<g mask="url(#mask0)">
<path opacity="0.1" d="M45.3676 90.5153C45.0071 90.4808 44.6397 90.4669 44.2792 90.4117C43.5165 90.3011 42.7539 90.1629 41.9081 90.0247C41.8803 89.9832 41.7694 89.8796 41.7486 89.7621C41.5129 88.3455 41.3326 86.9221 41.0692 85.5124C40.6601 83.3496 40.2025 81.2005 39.7657 79.0446C39.5578 78.0288 39.3151 77.02 39.1418 76.0042C38.6773 73.254 38.2335 70.5038 37.7898 67.7535C37.6858 67.1316 37.6096 66.5028 37.5056 65.8878C37.1035 63.5868 36.6736 61.2926 36.3062 58.9916C36.1259 57.886 36.0496 56.7596 35.9526 55.6402C35.8347 54.2996 35.7515 52.9522 35.6406 51.6116C35.592 51.0312 35.5366 50.4438 35.4395 49.8703C35.0582 47.6521 34.6769 45.4409 34.2609 43.2297C33.9836 41.7302 33.5953 40.2446 33.3596 38.7382C33.1793 37.5911 33.117 36.4233 33.0615 35.2624C33.013 34.143 33.2279 32.9752 32.9852 31.9041C32.6455 30.3908 32.6386 28.8775 32.59 27.3573C32.5346 25.7403 32.59 24.1234 32.5831 22.5064C32.5831 21.7947 32.6594 21.0829 32.1394 20.4472C31.7719 19.998 32.0007 19.5351 32.3474 19.1066C32.8466 18.4847 32.8258 18.4709 32.2573 17.849C31.7234 17.2617 31.8274 16.8056 32.5138 16.4808C33.6231 15.9487 34.7185 15.3821 35.8278 14.8362C36.5627 14.47 37.2976 14.0899 38.0602 13.779C39.3775 13.24 40.7017 12.6872 42.0606 12.2588C44.2514 11.5678 46.4631 10.9666 48.6747 10.3585C49.8741 10.0268 51.0874 9.75732 52.2938 9.4671C54.2627 8.9903 56.2317 8.54806 58.1938 8.02981C59.4833 7.69121 60.7382 7.22824 62.0278 6.86891C64.1562 6.27465 66.3193 5.79785 68.427 5.1414C71.7687 4.10489 75.0758 2.97163 78.3967 1.87984C78.8335 1.73473 79.2633 1.52743 79.714 1.45833C80.7193 1.30631 81.5374 0.940074 82.1613 0.110865C82.3624 -0.158628 82.9032 -0.36593 83.2429 -0.310649C83.9431 -0.206998 84.4839 -0.42812 85.0732 -0.725253C87.2363 -1.82395 89.552 -2.41131 91.9785 -2.49423C92.9284 -2.52878 93.8851 -2.31457 94.9736 -2.1971C95.3688 -3.06777 96.1869 -3.00558 97.0951 -2.6808C98.2183 -2.28002 99.3553 -1.96907 100.451 -1.45772C101.449 -0.994746 102.683 -0.918735 103.82 -0.863455C106.08 -0.752894 108.347 -0.815084 110.608 -0.718343C111.564 -0.676883 112.514 -0.4143 113.471 -0.289919C115.759 0.00721383 118.054 0.235247 120.328 0.57384C122.678 0.926254 125.028 0.788052 127.379 0.808782C129.188 0.822602 130.97 0.988444 132.738 1.36159C133.903 1.61035 135.102 1.72782 136.288 1.89366C138.021 2.12861 139.761 2.33591 141.494 2.57776C143.727 2.89562 145.959 3.24804 148.192 3.55899C148.684 3.62809 149.19 3.5659 149.689 3.55899C149.918 3.55899 150.154 3.51062 150.376 3.54517C151.041 3.64882 151.284 4.11871 150.993 4.7337C150.667 5.42471 150.292 6.09499 150.001 6.79981C149.148 8.88665 149.384 11.0219 149.745 13.1709C149.863 13.8688 149.793 14.5944 149.779 15.3061C149.759 16.1077 149.717 16.9162 149.661 17.7177C149.62 18.2982 149.544 18.8786 149.488 19.4591C149.363 20.7996 149.197 22.1333 149.121 23.4738C148.906 27.2813 148.781 31.1025 148.511 34.91C148.358 37.0106 147.97 39.0975 147.713 41.1981C147.54 42.6285 147.367 44.052 147.263 45.4893C147.11 47.5761 146.465 49.5455 145.945 51.5494C145.64 52.7241 145.342 53.8919 145.051 55.0667C145.009 55.2325 145.044 55.4122 145.044 55.7991C145.467 55.5365 145.772 55.3914 146.022 55.1841C147.602 53.8781 149.135 52.5168 150.743 51.2454C152.234 50.0707 152.837 48.4399 153.391 46.7677C153.482 46.4843 153.426 46.1388 153.378 45.8348C153.19 44.5979 153.003 43.3541 152.761 42.1241C152.663 41.6335 152.754 41.2603 153.086 40.8872C153.509 40.4173 153.884 39.906 154.341 39.3462C153.995 38.7796 153.69 38.2268 153.336 37.7155C152.962 37.1765 153.052 36.672 153.204 36.064C153.759 33.7905 155.464 32.5675 157.371 31.4895C157.794 31.2476 158.203 30.992 158.716 30.681C158.03 29.8242 157.468 29.0641 156.851 28.3523C156.075 27.4609 155.27 26.5903 154.459 25.7334C153.655 24.8904 153.1 23.923 152.823 22.8035C152.629 22.0227 152.379 21.2349 152.303 20.4403C152.213 19.4314 152.657 19.1481 153.648 19.4245C153.78 19.4591 153.905 19.5489 154.036 19.5627C156.352 19.7977 157.988 21.1658 159.527 22.6861C159.756 22.9072 159.978 23.1421 160.151 23.4047C160.942 24.614 161.711 25.844 162.488 27.0601C162.633 27.2882 162.793 27.5093 162.959 27.7235C163.652 28.6218 164.394 28.9328 165.67 28.6495C168.041 28.1243 170.488 27.8824 172.943 28.0621C173.352 28.0897 173.775 28.0275 174.184 28.0206C177.338 27.9584 180.333 28.5665 183.093 30.1144C183.211 30.1835 183.335 30.2457 183.453 30.3148C184.965 31.2062 185.145 31.6761 184.583 33.3138C184.528 33.4796 184.465 33.6454 184.299 34.1222C185.325 32.7333 186.594 32.2565 187.904 32.0285C189.277 31.7935 190.546 32.3394 191.641 33.141C192.993 34.1291 193.534 35.4766 193.416 37.1488C193.291 38.8556 193.215 40.5279 192.272 42.0757C191.232 43.7894 189.769 44.9503 187.904 45.6344C186.573 46.125 185.193 46.5051 183.8 46.9404C183.252 47.7005 182.684 48.4883 182.122 49.2622C182.552 49.9187 183.065 49.8565 183.647 49.8219C184.75 49.7459 185.859 49.6906 186.961 49.7805C189.741 49.9947 191.898 51.5011 193.804 53.2977C195.739 55.115 195.087 57.7685 192.584 58.7497C190.546 59.5513 188.41 59.883 186.233 59.9866C183.689 60.1041 181.193 60.4772 178.739 61.1475C176.784 61.6796 174.815 62.2048 172.825 62.571C170.925 62.9165 168.97 62.9856 167.063 63.3035C164.845 63.6766 162.64 63.5384 160.442 63.2689C157.829 62.9441 155.631 61.7556 153.787 59.9521C153.1 59.2749 153.073 58.4249 153.308 57.5543C153.364 57.3401 153.572 57.1604 153.599 56.9462C153.891 55.0597 155.222 54.2582 156.941 53.7952C158.175 53.4635 159.382 53.0558 160.761 52.6274C160.74 52.3994 160.782 51.9917 160.664 51.6393C160.019 49.6768 159.541 47.666 158.522 45.8279C157.759 44.4528 157.101 43.0155 156.449 41.5851C156.269 41.1912 156.283 40.7144 156.172 40.2791C156.026 39.6987 156.165 39.056 155.568 38.5654C155.201 38.2683 155.367 37.7293 155.839 37.598C156.976 37.2801 157.981 36.5131 159.271 36.6997C159.61 36.7481 160.013 36.6237 160.338 36.4717C161.371 35.9879 162.377 35.4421 163.403 34.9376C163.937 34.675 164.484 34.4539 165.164 34.1568C164.852 33.9702 164.623 33.7836 164.36 33.6938C163.001 33.2447 161.676 32.7264 160.539 31.8419C159.971 31.3997 159.375 31.3167 158.751 31.7106C157.856 32.2634 156.92 32.7679 156.088 33.3967C155.104 34.1361 154.598 35.2278 154.307 36.3749C154.216 36.7342 154.334 37.1696 154.452 37.5427C154.563 37.8813 154.806 38.1715 154.979 38.4894C155.506 39.443 155.534 39.6572 154.73 40.3689C154.002 41.0116 153.745 41.7579 153.835 42.6562C153.925 43.589 154.015 44.5357 154.21 45.4547C154.334 46.049 154.355 46.5949 154.182 47.1754C153.558 49.2553 152.469 50.9759 150.653 52.3441C148.802 53.7399 147.103 55.35 145.425 56.9462C144.337 57.9827 143.942 59.4062 143.623 60.8227C143.311 62.2255 142.95 63.6213 142.652 65.031C142.534 65.5907 142.52 66.1642 142.472 66.6272C143.054 67.2284 143.671 67.2491 144.268 67.2284C146.542 67.1316 148.608 67.8365 150.688 68.6311C152.927 69.488 155.277 69.8957 157.697 69.9579C159.811 70.0062 161.933 70.1721 164.048 70.179C164.9 70.179 165.753 69.8957 166.613 69.7436C167.195 69.64 167.778 69.4603 168.36 69.4603C169.462 69.4603 170.239 70.179 170.44 71.2431C170.676 72.5077 170.676 72.5077 171.993 72.6044C172.222 72.6182 172.457 72.6113 172.686 72.6459C173.428 72.7495 173.941 73.0536 174.142 73.8551C174.329 74.5876 174.731 75.2648 174.988 75.9765C175.355 76.9923 175.778 78.0012 175.993 79.0515C176.271 80.4266 177.019 81.4355 178.129 82.2301C179.508 83.2045 180.916 84.1373 182.295 85.1186C183.724 86.1274 184.909 87.3712 186.039 88.6911C188.972 92.1185 191.114 96.0848 193.894 99.6159C195.524 101.682 197.444 103.216 199.947 104.121C200.931 104.474 201.888 104.971 202.769 105.531C205.001 106.961 207.414 108.108 209.514 109.753C212.607 112.165 215.754 114.507 218.936 116.808C220.094 117.644 221.162 118.543 222.084 119.607C222.202 119.745 222.32 119.89 222.472 119.987C224.899 121.535 226.507 123.919 228.65 125.75C229.308 126.309 229.918 126.924 230.522 127.546C232.914 130.034 235.292 132.542 237.69 135.03C238.703 136.08 239.729 137.117 240.789 138.112C242.925 140.116 244.748 142.375 246.447 144.725C247.584 146.3 248.09 148.125 248.09 150.073C248.09 150.937 247.695 151.635 247.203 152.291C246.821 152.796 246.267 152.955 245.629 152.996C244.11 153.1 242.606 153.286 241.088 153.383C240.027 153.452 238.966 153.445 237.905 153.452C235.964 153.466 234.023 153.459 232.082 153.473C229.392 153.494 226.757 153.114 224.136 152.512C220.496 151.669 216.801 151.6 213.12 152.202C209.196 152.837 205.5 152.188 201.888 150.723C201.035 150.377 200.155 150.101 199.316 149.728C198.442 149.341 197.59 148.892 196.751 148.422C196.362 148.207 196.002 148.042 195.579 148.228C194.123 148.878 192.529 148.864 190.996 149.099C188.362 149.5 185.727 149.88 183.1 150.329C180.104 150.84 177.061 151.117 174.045 151.531C172.769 151.704 171.508 152.001 170.232 152.153C165.926 152.664 161.621 153.162 157.309 153.611C153.988 153.957 150.688 153.798 147.401 153.086C145.564 152.685 143.651 152.609 141.772 152.416C138.874 152.112 135.976 152.029 133.064 152.312C131.927 152.423 130.762 152.208 129.611 152.229C127.58 152.271 125.555 152.402 123.524 152.457C121.915 152.499 120.3 152.478 118.692 152.478C118.504 152.478 118.324 152.457 118.137 152.457C116.431 152.45 114.726 152.526 113.034 152.423C110.961 152.298 108.902 152.036 106.836 151.808C105.782 151.69 104.728 151.559 103.688 151.358C102.288 151.089 100.908 150.75 99.5217 150.439C99.39 150.412 99.2444 150.357 99.1473 150.274C97.3447 148.809 95.1677 149.14 93.0739 149.037C91.5556 148.961 90.0303 148.919 88.5397 148.684C87.0283 148.449 86.5915 147.91 86.3905 146.459C86.2033 145.098 86.2033 143.716 86.1617 142.341C86.0993 140.295 86.751 138.354 86.7094 136.322C86.6886 135.32 87.063 134.291 87.368 133.309C88.1861 130.69 89.0389 128.085 89.9333 125.494C90.1482 124.865 90.2175 124.278 90.065 123.649C89.8847 122.903 89.7877 122.136 89.5312 121.424C89.3509 120.927 89.4064 120.546 89.7253 120.187C90.0789 119.786 90.1343 119.316 90.2037 118.819C90.3978 117.444 90.6612 116.076 90.9039 114.701C90.9455 114.479 91.0356 114.251 91.0079 114.037C90.7236 111.501 91.3684 108.944 90.7999 106.422C90.4325 104.785 89.8639 103.251 88.6715 101.965C87.7216 100.943 86.6539 100.134 85.3991 99.5399C84.581 99.1529 84.1858 98.607 84.0887 97.6741C83.9085 95.9812 83.0904 94.4955 81.9603 93.2171C81.2462 92.4087 80.3726 91.7246 79.5892 90.9714C79.1316 90.5291 78.7017 90.0592 78.265 89.5963C77.7935 89.1057 77.3983 88.5183 76.8437 88.1452C76.1573 87.6753 75.7136 87.2607 75.7205 86.3278C75.7275 85.8026 75.1382 85.2568 74.7707 84.7523C74.5627 84.469 74.1814 84.2893 74.0011 83.9922C72.8086 81.9883 70.7773 80.9932 68.8013 79.9153C69.5709 80.6201 70.3474 81.318 71.117 82.0228C71.7548 82.6033 72.4204 83.1699 73.0236 83.7849C73.398 84.1719 73.7238 84.6279 73.9942 85.0909C74.4448 85.8579 74.327 86.3555 73.5505 86.7908C72.9958 87.1017 72.3927 87.392 71.7756 87.5302C71.318 87.6338 70.6733 87.6338 70.3335 87.392C69.6888 86.9221 68.9955 86.6249 68.2814 86.3071C67.4563 85.9339 66.874 85.2982 66.5412 84.469C66.2569 83.7573 65.9935 83.0386 65.6676 82.1818C65.2655 82.7968 65.3487 83.3772 65.5289 83.8678C65.7785 84.5312 66.1321 85.1807 66.555 85.7612C67.6019 87.1847 68.6766 88.5943 69.8136 89.9556C70.3266 90.5706 70.9991 91.0681 71.6162 91.6002C72.1985 92.1046 72.8294 92.5676 73.398 93.0928C73.8139 93.4797 73.9873 93.9496 73.8209 94.5646C73.4465 95.9743 73.6891 97.3286 74.3617 98.6208C74.7152 99.298 75.0411 99.9959 75.4363 100.659C75.88 101.399 76.4138 102.062 77.2042 102.518C77.537 102.705 77.8143 103.064 77.9876 103.41C78.1679 103.769 77.9391 104.107 77.5994 104.322C77.2597 104.529 76.913 104.418 76.7674 104.114C76.3722 103.278 75.6928 103.299 74.9094 103.368C73.5366 103.492 72.9889 103.168 72.4065 101.945C71.8103 100.687 70.8258 99.9061 69.5293 99.3948C68.5032 98.994 67.5326 98.5033 66.3678 98.5655C65.8063 98.6001 65.4527 98.144 65.2516 97.6741C64.7386 96.458 63.8096 95.7048 62.5408 95.3662C61.4246 95.069 60.9601 94.226 60.5025 93.2517C60.9323 92.6091 60.9462 91.8766 60.7243 91.1096C60.6481 90.8539 60.6481 90.5706 60.6619 90.308C60.7105 89.0296 60.1905 87.9862 59.4348 86.9566C58.797 86.086 57.8887 85.7128 56.9944 85.2637C56.7933 85.16 56.5021 85.1877 56.3496 85.0564C56.1624 84.8974 55.9613 84.6072 55.9891 84.3999C56.0099 84.1995 56.2803 83.9715 56.5021 83.8609C56.6893 83.7642 56.9528 83.8264 57.1816 83.7918C58.1175 83.6329 58.6444 83.0732 58.6722 82.1334C58.686 81.781 58.686 81.3733 58.5266 81.0762C57.861 79.8185 57.3341 78.4849 56.3981 77.3655C56.2803 77.2272 56.1 77.1167 56.0376 76.9647C55.6216 76.018 54.963 75.6103 53.8676 75.79C53.5209 75.8452 53.098 75.5343 52.7236 75.3754C52.3146 75.1957 51.9194 74.9884 51.4826 74.7811C50.9765 75.4652 50.9973 76.1493 51.0389 76.8057C51.1013 77.7801 50.8517 78.6784 50.4218 79.5421C50.0613 80.2677 49.7563 81.0278 49.3333 81.7188C48.7579 82.6655 48.5846 83.6882 48.8272 84.7109C49.1808 86.238 49.68 87.7306 50.1237 89.2369C50.2138 89.541 50.3594 89.8243 50.4218 90.1283C50.7546 91.8697 51.9055 95.2971 52.7375 96.9209C52.5572 97.4461 52.1551 97.764 51.5866 97.916C50.72 98.144 50.2762 97.9782 49.9365 97.1697C49.3472 95.7393 48.9104 94.3089 49.4304 92.7265C49.7424 91.7799 49.1046 90.999 48.5499 90.2804C48.3211 89.9832 47.8913 90.08 47.7179 90.3771C47.4476 90.8332 47.2118 91.3307 47.1009 91.842C47.0038 92.2705 47.0177 92.7542 47.1286 93.1826C47.4684 94.537 47.0801 95.8568 47.0385 97.1973C47.0108 97.9022 46.6572 98.3721 45.9778 98.6208C45.2775 98.8765 44.7229 98.7245 44.2792 98.1371C44.8338 96.2852 45.3884 94.4471 45.9362 92.616C45.853 92.5814 45.7698 92.5469 45.6866 92.5123C45.5895 92.6713 45.4994 92.8302 45.3954 92.9753C44.8061 93.8252 44.2861 94.7305 43.6136 95.5182C42.22 97.1559 42.0952 98.7521 43.2323 100.59C44.4178 102.504 45.9154 104.094 47.7595 105.441C48.9312 106.298 49.9088 107.397 50.9557 108.412C51.9679 109.394 52.9177 110.444 53.9646 111.384C55.7811 113.008 57.2717 114.873 58.5335 116.919C58.6999 117.188 58.894 117.444 59.0812 117.693C60.454 119.489 61.8683 121.258 63.1925 123.089C64.4335 124.81 65.0228 126.8 65.3695 128.852C65.418 129.15 65.4458 129.543 65.2932 129.771C64.8148 130.462 64.9188 131.229 64.8426 131.983C64.7247 133.095 64.5722 134.215 64.3919 135.32C63.9413 138.112 63.3034 140.883 63.3242 143.737C63.3312 144.856 63.2826 145.976 63.2064 147.088C63.1856 147.358 62.9568 147.606 62.6587 148.166C62.4715 147.599 62.3051 147.344 62.3189 147.088C62.3605 145.837 62.5547 144.58 62.5061 143.329C62.3952 140.6 63.144 137.981 63.4768 135.313C63.7125 133.468 63.7264 131.644 63.6224 129.806C63.6016 129.495 63.4768 129.15 63.5808 128.88C64.385 126.848 63.4213 125.162 62.3675 123.587C61.1195 121.714 59.6567 119.973 58.3116 118.162C57.2093 116.67 56.1624 115.136 55.0392 113.657C54.6649 113.16 54.1796 112.704 53.6526 112.351C52.0719 111.287 50.9279 109.794 49.6453 108.461C48.5984 107.376 47.6209 106.236 46.3244 105.434C44.9933 104.612 44.1128 103.403 43.2115 102.214C42.5806 101.385 42.0606 100.48 41.5059 99.6021C41.3881 99.4155 41.1662 99.1529 41.2217 99.0078C41.7209 97.6258 41.2147 95.9535 42.6083 94.7996C43.3224 94.2053 43.8354 93.3692 44.3485 92.5883C44.7645 91.9526 45.0349 91.234 45.3676 90.5499C45.7836 90.3771 46.2828 90.2873 46.6017 90.004C47.295 89.3821 47.8913 88.6634 48.6331 87.8618C48.2657 86.5766 47.8497 85.1462 47.4822 83.854C46.9137 83.9093 46.3729 83.9646 45.7074 84.0337C45.5618 85.5539 45.5548 87.1985 45.749 88.8223C45.8114 89.4581 45.7975 89.9971 45.3676 90.5153ZM51.7045 18.6437L51.7807 18.7266C51.6421 18.8441 51.5311 19.0168 51.3647 19.079C49.4304 19.7907 47.51 20.5647 45.4508 20.8618C43.8216 21.0898 42.1784 21.2073 40.5284 21.3801C40.3828 22.0365 40.4798 22.5617 41.0414 22.9072C41.4435 22.8312 41.8041 22.7344 42.1646 22.7137C44.1266 22.5893 45.9223 21.8707 47.7526 21.2695C48.8896 20.8964 50.0267 20.5163 51.1914 20.2537C53.5625 19.7216 55.9821 19.3692 58.3324 18.7611C62.5824 17.6624 66.6452 16.08 70.5207 14.0416C72.5868 12.9567 74.6043 11.7751 76.6981 10.7386C78.6255 9.78496 80.5945 8.9212 82.3347 7.64284C83.3538 6.88964 84.3938 6.171 85.4268 5.43853C84.5948 5.16213 83.8391 4.91336 83.021 4.64387C82.7437 5.03774 82.6744 5.63201 81.9741 5.85313C80.2617 6.38521 78.5908 7.04858 76.9061 7.66357C75.3115 8.24402 73.6683 8.72081 72.1361 9.41873C69.4253 10.6487 66.7076 11.8649 64.1493 13.392C63.0954 14.0208 61.9168 14.4493 60.7798 14.9399C60.5996 15.0159 60.3361 14.9122 59.8438 14.857C60.2668 14.5667 60.4332 14.4216 60.6273 14.3318C61.7435 13.7997 62.8875 13.3022 63.9967 12.7563C66.5758 11.471 69.0995 10.0683 71.7271 8.90047C74.4518 7.69121 77.2805 6.70307 80.0537 5.61128C80.5667 5.41089 81.1006 5.22432 81.5512 4.92027C81.8216 4.7337 81.9741 4.35365 82.0851 4.02196C82.1336 3.87685 81.9533 3.65573 81.8424 3.40006C80.8856 3.84921 80.019 4.25691 79.1524 4.6646C76.3306 5.98442 73.502 7.31116 70.6733 8.61716C69.6333 9.10087 68.6072 9.69513 67.5049 9.95771C64.7386 10.6073 62.1734 11.6576 59.7607 13.1087C59.2199 13.4335 58.6028 13.6892 57.9789 13.8343C56.4259 14.2074 55.0531 14.9053 53.7428 15.7691C51.5103 17.2271 49.1739 18.464 46.4977 19.0237C45.5548 19.2172 44.6605 19.6111 43.7522 19.9359C43.5512 20.005 43.3709 20.157 43.1837 20.2745C43.9325 20.2814 44.6119 20.1708 45.2844 20.0326C46.5879 19.7631 47.9121 19.6318 49.1878 19.2241C49.992 18.9477 50.7754 18.4433 51.7045 18.6437ZM159.333 112.386C158.661 110.803 157.849 109.311 156.747 107.963C155.596 106.561 154.438 105.151 153.35 103.707C152.712 102.857 152.192 101.924 151.388 100.666C151.409 102.09 150.41 101.73 149.814 102.103C150.383 103.852 151.318 105.241 153.01 106.139C155.159 107.279 156.816 108.938 158.078 110.99C158.397 111.515 158.917 111.923 159.347 112.379C159.666 112.752 159.971 113.146 160.304 113.498C161.025 114.258 161.864 114.59 162.994 114.583C164.568 114.576 166.051 115.115 167.41 115.937C167.868 116.221 168.388 116.601 168.88 116.608C170.204 116.635 171.369 116.933 172.471 117.693C173.338 118.287 174.468 118.328 175.473 118.625C177.227 119.144 178.961 119.8 180.59 120.616C182.087 121.362 183.578 122.177 184.666 123.552C185.332 124.395 186.219 125.079 187.058 125.777C189.61 127.926 191.655 130.449 193.014 133.454C194.088 135.838 195.031 138.278 196.085 140.676C196.564 141.774 196.855 142.873 196.792 144.075C196.737 145.063 196.82 146.045 197.312 147.012C199.101 146.853 200.841 146.646 202.207 145.305C201.999 144.877 201.812 144.566 201.694 144.234C200.786 141.657 199.94 139.059 198.969 136.502C198.144 134.318 197.236 132.155 196.12 130.089C195.607 129.136 195.212 128.113 194.595 127.229C193.478 125.618 191.988 124.333 190.469 123.082C190.296 122.937 190.102 122.82 189.901 122.709C188.383 121.88 186.809 121.127 185.339 120.215C183.46 119.054 181.498 118.121 179.342 117.554C176.811 116.891 174.232 116.4 171.75 115.509C170.121 114.929 168.388 114.638 166.883 113.706C166.55 113.498 166.1 113.443 165.698 113.381C165.108 113.291 164.498 113.291 163.909 113.208C162.377 112.994 160.768 113.125 159.333 112.386ZM119.121 29.4925C118.497 28.8844 117.853 28.2763 116.903 28.2556C115.509 28.221 114.157 28.0137 112.805 27.689C111.606 27.3987 110.372 27.2053 109.152 27.0118C107.411 26.7354 105.9 26.0444 104.721 24.7384C104.153 24.1164 103.529 24.1786 102.85 24.5034C101.803 25.0078 100.721 25.0009 99.6118 24.6969C99.2721 24.6002 98.9254 24.538 98.5441 24.455C98.2807 25.0493 98.3847 25.3741 98.9393 25.5883C99.4524 25.7818 99.9793 25.9753 100.43 26.2655C100.964 26.611 101.421 27.067 101.921 27.4678C103.002 28.3385 104.167 28.8084 105.623 28.4974C106.274 28.3592 106.996 28.5113 107.682 28.5113C108.597 28.5113 109.512 28.5043 110.427 28.4836C111.391 28.4629 112.376 28.297 113.318 28.4214C115.274 28.6909 117.201 29.1124 119.135 29.4648C120.453 30.2595 121.874 30.7363 123.42 30.7985C124.432 30.8399 125.451 30.7916 126.47 30.7985C126.838 30.8054 127.219 30.8123 127.566 30.9229C128.412 31.1855 128.751 31.6761 128.259 32.4362C127.698 33.3068 127.136 34.1775 126.54 35.0275C126.235 35.4628 125.736 35.6701 125.202 35.5941C124.522 35.4973 123.857 35.3108 123.191 35.1587C122.526 35.0067 121.867 34.7994 121.187 34.6958C120.529 34.5921 119.891 34.4885 119.475 33.9357C118.47 32.602 117.048 32.3049 115.461 32.2496C114.317 32.2081 113.166 32.0423 112.043 31.8212C110.275 31.4757 108.535 31.0887 106.711 31.068C105.477 31.0542 104.25 30.757 103.009 30.6672C101.907 30.5912 100.797 30.5843 99.6881 30.6188C98.9532 30.6396 98.662 31.0334 98.662 31.7728C98.662 32.4638 98.9116 32.83 99.5633 32.8992C100.402 32.989 101.151 33.293 101.927 33.5902C102.981 33.9909 104.077 34.3157 105.283 33.8389C106.254 33.452 107.335 33.3276 108.361 33.065C109.478 32.7817 110.538 32.8024 111.551 33.4381C112.369 33.9495 113.256 34.2743 114.254 34.3848C114.969 34.4608 115.655 34.7994 116.355 35.0275C116.924 35.214 117.471 35.4766 118.054 35.5941C119.898 35.9741 121.749 36.3542 123.614 36.6168C124.46 36.7342 125.347 36.5891 126.221 36.5408C126.443 36.5269 126.658 36.4026 126.886 36.3542C127.913 36.14 128.523 36.5408 128.606 37.5427C128.647 38.0333 128.578 38.5309 128.53 39.0215C128.446 39.7954 128.037 40.2653 127.185 40.2653C126.29 40.0718 125.361 39.9751 124.508 39.671C123.371 39.2633 122.255 39.2011 121.125 39.5328C119.628 39.9682 118.497 39.3601 117.568 38.3305C116.993 37.6878 116.293 37.446 115.502 37.3976C114.913 37.3561 114.289 37.4045 113.721 37.5427C111.835 37.9988 109.977 37.9504 108.112 37.4736C106.503 37.0659 104.839 36.8379 103.286 36.292C101.643 35.7185 100.277 36.292 98.6204 36.7964C99.2513 37.3769 99.7921 37.7984 100.222 38.3028C100.707 38.8764 101.31 39.0491 102.025 39.1597C104.07 39.4844 106.108 39.8161 108.16 39.1942C108.334 39.1389 108.528 39.1459 108.708 39.132C109.408 39.1044 110.081 39.1597 110.67 39.6226C112.036 40.7006 113.658 41.1912 115.35 41.516C115.71 41.5851 116.099 41.6335 116.411 41.7993C118.019 42.6838 119.697 42.4765 121.402 42.1863C122.851 41.9444 124.079 41.2258 125.34 40.5831C125.937 40.2791 126.519 40.0649 127.191 40.2376C127.559 41.5022 128.557 42.594 128.37 44.1142C127.573 44.3077 126.831 44.4943 125.992 44.7016C125.784 45.5584 125.063 45.6966 124.203 45.6828C123.191 45.669 122.165 45.6897 121.153 45.7726C120.251 45.8486 119.426 45.6966 118.588 45.3856C117.083 44.8259 115.579 44.2386 113.942 44.0935C113.214 44.0313 112.5 43.7963 111.772 43.7134C111.051 43.6236 110.296 43.4992 109.588 43.6098C108.639 43.7549 107.696 44.0451 106.801 44.3837C105.262 44.971 104.014 44.515 102.863 43.5268C102.482 43.2021 102.129 42.8497 101.768 42.5111C100.797 41.6058 99.5841 41.6473 98.3847 41.7095C98.2183 41.7164 97.9687 41.9513 97.934 42.1172C97.8993 42.2968 98.038 42.5318 98.1559 42.7114C98.2183 42.8082 98.3916 42.8358 98.5095 42.898C100.042 43.6236 101.588 44.3077 103.099 45.0747C104.368 45.7173 105.616 46.1734 107.065 45.6828C107.751 45.4478 108.431 45.5377 108.958 46.1319C109.339 46.5673 109.866 46.7124 110.434 46.7884C111.53 46.9335 112.757 46.8644 113.686 47.3412C115.371 48.205 117.069 47.1339 118.692 47.6798C118.726 47.6936 118.782 47.6591 118.823 47.6383C120.078 46.9957 121.354 47.355 122.609 47.6176C123.087 47.7212 123.489 47.8111 123.898 47.4587C124.203 47.1892 124.626 47.1201 124.917 47.3896C125.486 47.9147 126.124 47.6522 126.706 47.6107C127.469 48.3777 127.469 48.3777 127.524 49.124C127.559 49.5248 127.594 49.9325 127.635 50.3333C127.76 51.5494 127.143 52.123 125.916 51.8466C125.292 51.7084 124.689 51.4527 124.092 51.2108C123.15 50.8239 122.186 50.5129 121.146 50.5475C120.037 50.5889 118.927 50.5958 117.825 50.6926C115.253 50.9275 112.778 50.6442 110.386 49.6561C109.762 49.4004 109.055 49.2415 108.382 49.2C106.358 49.0825 104.326 49.0065 102.302 48.9789C101.262 48.9651 100.423 48.6196 99.6881 47.9355C99.4731 47.7351 99.2166 47.5831 98.8284 47.2928C98.7798 47.7213 98.6689 47.9977 98.7452 48.198C99.182 49.2967 99.9169 50.1052 101.165 50.4024C102.059 50.6166 102.954 50.8584 103.806 51.1763C104.701 51.5149 105.581 51.5702 106.517 51.425C109.651 50.9483 112.674 51.3559 115.599 52.5376C116.667 52.966 117.776 53.2977 118.802 53.7952C119.842 54.2927 120.799 54.2789 121.867 53.8989C122.831 53.5534 123.919 53.4221 124.813 53.9956C125.881 54.6797 126.838 55.5296 127.358 56.7389C127.101 57.1604 126.775 57.5197 126.651 57.9274C126.304 59.0538 125.313 59.5029 124.37 59.6688C122.921 59.9244 121.368 59.8761 120.023 59.2265C118.733 58.5977 117.43 58.3559 116.022 58.418C114.851 58.4733 113.866 58.1002 113.069 57.2226C112.382 56.4625 111.557 56.117 110.469 56.4072C108.791 56.8495 107.037 56.8909 105.401 56.4141C103.591 55.889 101.81 55.3569 99.9169 55.1979C99.3276 55.1496 98.759 54.887 98.1767 54.7557C97.4695 54.5899 96.9357 54.8386 96.5682 55.4122C96.8525 56.0824 97.3932 56.193 97.9617 56.1861C98.5095 56.1792 99.0364 56.3105 99.3137 56.7389C100 57.803 101.123 58.2384 102.163 58.8119C103.328 59.4476 104.5 59.572 105.699 58.8465C106.829 58.1555 107.987 58.266 109.11 58.881C110.351 59.5582 111.689 59.724 113.083 59.8692C115.274 60.0972 117.471 60.4289 119.621 60.9195C121.409 61.3272 123.156 61.4861 124.959 61.1406C125.944 60.954 126.221 61.2512 126.041 62.2048C125.874 63.0754 125.756 63.953 125.652 64.5956C126.2 65.2383 126.602 65.6598 126.949 66.1228C127.49 66.8483 128.003 67.5946 128.523 68.334C129.292 69.4189 129.736 69.5225 130.928 68.9075C131.58 68.5689 132.024 68.03 132.218 67.3804C132.454 66.5719 132.613 65.7151 132.655 64.879C132.724 63.6766 132.689 62.4673 132.641 61.2581C132.544 58.6806 133.043 56.1584 133.334 53.6225C133.688 50.5475 134.159 47.4794 134.575 44.4113C134.936 41.744 135.282 39.0698 135.657 36.4026C135.823 35.2486 136.087 34.1015 136.246 32.9475C136.537 30.8538 136.787 28.76 137.05 26.6594C137.182 25.5883 137.196 24.4896 137.452 23.4531C137.868 21.767 137.605 20.1362 137.279 18.5055C137.043 17.2962 136.572 16.9991 135.324 17.1096C133.445 17.2824 131.573 17.5035 129.701 17.6832C129.396 17.7108 129.07 17.6348 128.765 17.5588C126.221 16.9231 123.635 16.4394 121.174 15.5065C119.898 15.0228 118.588 14.6082 117.277 14.2143C116.438 13.9656 115.565 13.8412 114.726 13.5993C113.318 13.1847 111.925 12.7356 110.531 12.2795C106.94 11.1048 103.48 9.66058 100.402 7.45627C99.2166 6.60633 98.0103 5.80476 97.1298 5.19668C95.6669 5.25887 94.5992 5.30033 93.483 5.3487C93.3582 6.21937 93.2403 7.01403 93.1294 7.80868C93.0393 8.47896 93.1779 9.01795 93.8643 9.398C94.5507 9.77805 94.8211 10.4207 94.8488 11.2153C94.8835 12.2726 94.9459 12.1966 96.0552 12.4453C97.6567 12.7978 99.4038 12.5835 100.825 13.6131C100.929 13.6892 101.089 13.6892 101.227 13.703C102.025 13.7652 102.551 14.1659 103.037 14.7879C103.501 15.3821 104.07 16.0109 104.735 16.315C106.323 17.0267 107.945 17.6486 109.741 17.7799C111.828 17.9319 113.88 18.4018 115.738 19.307C118.047 20.4334 120.459 20.7651 122.976 20.7582C123.995 20.7582 125.014 20.7236 126.027 20.7789C126.803 20.8203 127.587 20.924 128.349 21.0829C128.592 21.1382 128.897 21.4284 128.959 21.6703C129.056 22.0365 128.731 22.2093 128.37 22.2507C128.231 22.2645 128.086 22.2507 127.954 22.2853C126.609 22.617 125.271 22.9694 124.328 24.0888C124.099 24.3652 123.78 24.5725 123.496 24.8005C122.893 25.2843 122.262 25.2912 121.569 24.9595C120.785 24.5863 119.974 24.2616 119.163 23.9368C118.144 23.5291 117.062 23.225 116.092 22.7275C114.109 21.7187 112.043 20.9931 109.845 20.6061C108.445 20.3643 107.238 19.7078 106.164 18.8372C104.943 17.849 103.695 17.2755 102.149 18.1807C101.629 18.4847 101.095 18.4087 100.555 18.1669C100.097 17.9527 99.6257 17.7523 99.1473 17.6003C98.87 17.5104 98.558 17.5173 98.1697 17.4759C98.0588 18.6368 98.3708 19.6111 98.6134 20.62C99.5355 20.7996 100.326 20.5232 101.019 20.1017C101.927 19.5489 102.808 19.6318 103.64 20.1155C105.061 20.9447 106.42 21.8638 107.827 22.7137C108.16 22.9141 108.576 23.1145 108.951 23.1007C109.63 23.0661 110.323 22.9279 110.982 22.7344C112.93 22.1678 114.698 22.2715 116.258 23.7226C117.27 24.6623 118.484 25.3257 119.829 25.7265C122.096 26.4106 124.231 26.2033 126.075 24.6693C127.448 23.5222 127.711 23.4047 129.251 24.0543C130.422 24.5518 131.067 25.9269 130.658 27.2329C129.819 26.9841 129.195 27.2882 128.751 28.0345C128.405 28.6218 127.802 28.8498 127.15 28.988C126.658 29.0917 126.165 29.2368 125.673 29.3335C123.482 29.7482 121.319 30.3217 119.121 29.4925ZM75.8731 33.5418L75.8661 33.528C74.9232 34.6128 71.429 36.7066 70.0493 37.0176C69.9592 37.0383 69.869 37.0521 69.7789 37.0659C68.2328 37.3285 66.6798 37.5704 65.1407 37.8606C63.144 38.2337 61.3553 39.056 59.9894 40.5417C59.2753 41.3156 58.686 42.1379 57.5421 42.4005C57.036 42.518 57.0498 43.1537 57.5005 43.4716C57.9581 43.7963 58.4364 43.8378 58.9148 43.5061C59.7399 42.9326 60.5788 42.3729 61.3622 41.7509C62.0208 41.2258 62.7072 40.8181 63.5392 40.6177C64.9743 40.2722 66.3956 39.8714 67.8307 39.5535C69.8136 39.1113 71.7479 38.5861 73.5436 37.598C74.3339 37.1627 75.2421 36.9001 76.1088 36.6099C77.2943 36.216 78.4452 35.8083 79.395 34.9445C79.9636 34.4263 80.6638 34.0462 81.3155 33.6247C82.5218 32.8508 82.9725 32.8439 83.9362 33.9011C84.5879 34.6198 85.0455 35.5112 85.5724 36.2989C85.3367 37.0106 84.8652 37.2663 84.2551 37.4736C81.9533 38.2752 79.6516 39.0906 77.3914 39.9958C75.5541 40.7283 73.7793 41.5989 71.9697 42.3867C71.5954 42.5525 71.1932 42.6976 70.7911 42.7391C69.6472 42.8635 68.4963 43.0224 67.3454 43.0086C65.7855 42.9948 64.4474 43.513 63.2272 44.3768C61.3483 45.6966 59.4903 47.051 57.4727 48.4952C58.0135 48.4468 58.381 48.3846 58.7415 48.3846C60.3916 48.3708 61.9238 47.9838 63.3866 47.2237C63.9482 46.9335 64.6068 46.8229 65.2031 46.5949C66.451 46.125 67.7059 45.6828 68.9192 45.1438C71.9351 43.8032 74.9232 42.3936 77.9391 41.0392C79.3188 40.4242 80.7401 39.906 82.1128 39.2841C83.0072 38.8764 83.3538 39.0215 83.4439 40.0234C83.4578 40.1547 83.4578 40.2929 83.4509 40.4311C83.4023 41.0461 83.6935 41.3916 84.2482 41.7026C84.782 41.9928 85.1911 42.4972 85.7943 43.0362C85.6972 43.0362 85.8358 43.0362 85.9676 43.0362C86.8966 43.0362 87.0214 43.1191 87.1947 43.9345C87.3888 44.8467 87.3056 45.7242 86.8203 46.5465C86.5222 47.051 86.2241 47.5554 85.9329 48.0529C86.6123 48.7025 86.7371 49.0065 86.3004 49.6284C85.7318 50.4438 85.1148 51.2385 84.4007 51.9295C83.4162 52.8831 82.3277 53.7399 81.2878 54.6382C81.7661 54.6244 82.1405 54.4655 82.501 54.2927C83.1874 53.968 83.8461 54.0301 84.47 54.4448C84.7404 54.6244 84.9969 54.811 85.2465 55.0114C86.1201 55.7231 86.2241 56.4901 85.4268 57.3193C84.4839 58.3006 83.4994 59.268 82.4317 60.1179C81.267 61.0508 79.922 61.5967 78.3274 61.3686C77.2042 61.2097 76.1226 61.493 75.1174 62.0044C74.015 62.571 72.9404 63.1791 71.8242 63.725C70.389 64.4298 68.9053 65.0517 67.491 65.798C66.5412 66.2955 65.4458 66.6203 64.9674 67.3044C65.4458 67.9401 65.8479 68.4722 66.3193 69.101C67.6713 68.2787 68.9192 67.2837 70.3474 66.7239C71.7548 66.1642 72.9265 65.0586 74.5419 64.9411C74.4032 65.183 74.223 65.3627 74.0081 65.487C72.4551 66.3646 70.8882 67.2215 69.3352 68.1129C69.0995 68.2442 68.94 68.4929 68.7389 68.6864C68.7805 68.7693 68.8221 68.8522 68.8637 68.9352C69.765 68.797 70.6733 68.6933 71.5607 68.4998C72.5452 68.2856 73.5158 67.9816 74.4934 67.7466C75.2144 67.5739 75.9424 67.4633 76.6634 67.3182C79.395 66.7723 81.3918 65.4179 82.2307 62.6816C82.4109 62.1011 82.404 61.5967 82.092 61.113C82.2792 60.9679 82.3763 60.8504 82.501 60.8158C83.4439 60.5602 83.7559 60.8158 83.4925 61.7211C83.2914 62.4052 82.9378 63.0478 82.6674 63.7112C81.7731 65.8878 80.1646 67.1938 77.7935 67.6706C76.0741 68.0161 74.3825 68.4584 72.6631 68.8177C71.3596 69.0872 70.0354 69.2807 68.7251 69.5225C68.0526 69.6469 67.3731 69.7644 66.7076 69.9371C66.0836 70.103 65.4874 70.3656 64.8703 70.5383C63.7888 70.8354 62.7835 71.2777 61.9584 72.0309C61.5494 72.404 61.1334 72.5215 60.5718 72.3902C59.2961 72.0793 58.2354 72.7011 57.1954 73.2816C57.0013 73.3922 56.925 73.71 56.8002 73.9242C58.166 74.9815 58.1591 74.9815 58.0205 76.6814C57.9997 76.9785 57.9997 77.324 58.1314 77.5797C58.4711 78.2569 58.8802 78.8995 59.206 79.4592C59.9409 79.6112 60.558 79.7633 61.1819 79.8669C61.5424 79.9222 61.9238 79.9498 62.2773 79.8945C64.0522 79.6181 65.834 79.3486 67.4979 78.6162C67.9139 78.4365 68.3854 78.3881 68.8291 78.2569C70.6802 77.704 72.6215 77.4484 74.3825 76.5984C74.7915 76.398 75.2352 76.2667 75.6581 76.1009C77.0309 75.5688 78.4244 75.0851 79.7625 74.484C82.1059 73.4267 84.4215 72.3211 86.7233 71.1879C87.4998 70.8078 88.2901 70.3725 88.9349 69.8127C89.656 69.1839 90.6404 68.7693 90.8138 67.6015C90.9039 66.9865 91.8745 66.9105 92.2489 67.4633C92.4708 67.7881 92.5678 68.2027 92.6649 68.5897C92.8521 69.3083 92.9977 70.0408 93.1987 70.9391C93.9822 70.2204 94.5992 69.6193 95.2509 69.0665C95.7709 68.6242 96.2839 68.1198 96.8941 67.8572C99.3137 66.8207 101.789 66.0053 104.507 66.1435C105.491 66.1919 106.489 66.026 107.481 65.9569C107.016 65.7496 106.538 65.7427 106.122 65.5838C105.054 65.183 103.952 65.1761 102.843 65.1761C101.366 65.1761 99.8822 65.1623 98.4055 65.2175C97.4903 65.2521 96.5821 65.4318 95.6669 65.5078C95.2232 65.5492 94.7448 65.5976 94.3288 65.4801C93.3374 65.2037 92.8382 64.5058 92.7342 63.4969C92.6857 63.0132 92.6441 62.4812 92.4084 62.0804C92.0063 61.4032 91.4447 60.8158 90.9594 60.1801C90.682 59.8139 90.4741 59.4338 90.682 58.9363C90.9732 58.2384 91.1951 57.5059 91.4863 56.8011C92.1172 55.2947 92.034 53.7123 91.9993 52.1437C91.9508 49.9463 91.6873 47.7558 91.6735 45.5584C91.6527 42.6907 91.7151 39.823 91.8953 36.9554C92.0409 34.6198 92.1172 32.2842 92.1449 29.9485C92.1934 26.1687 92.1796 22.3958 92.1726 18.616C92.1726 18.0356 92.0271 17.4551 91.9993 16.8747C91.9508 15.5341 91.9092 14.1936 91.9092 12.8461C91.9092 11.9685 91.9924 11.0841 92.0479 10.1236C91.5279 10.0752 91.1119 9.9439 90.7236 10.0061C89.9679 10.1236 89.2954 10.0337 88.5744 9.75041C87.687 9.398 86.231 9.99918 85.6764 10.7662C85.4129 11.1255 85.1217 11.4848 84.7682 11.7543C83.2775 12.8807 81.7453 13.9586 80.2547 15.085C79.3812 15.7414 78.6393 16.5983 77.6895 17.1165C76.1642 17.9388 74.5558 18.6713 72.9057 19.2379C69.9453 20.2468 66.9156 21.0829 64.3295 22.9072C63.8026 23.2803 63.2133 23.2803 62.6101 23.2942C61.8752 23.308 61.1334 23.2942 60.4609 23.7018C59.206 24.462 57.8194 24.69 56.3565 24.6693C55.7672 24.6623 55.164 24.7522 54.5886 24.8904C53.8745 25.0562 53.1881 25.3119 52.4948 25.5468C52.1066 25.6781 51.6837 25.7749 51.3509 25.996C51.1845 26.1065 51.1845 26.4521 51.1082 26.687C51.3093 26.7423 51.5658 26.9012 51.7114 26.8321C52.7583 26.3553 54.034 26.6386 54.9907 25.8716C55.1086 25.7749 55.3443 25.8232 55.5315 25.8094C56.828 25.6781 58.0759 25.4017 59.2476 24.8144C59.4001 24.7384 59.6151 24.7798 60.0796 24.7522C59.6636 25.1599 59.4903 25.4708 59.2337 25.5676C58.2076 25.9545 57.1677 26.4106 56.0931 26.5695C55.1987 26.7008 54.3945 26.9081 53.6249 27.3296C52.7305 27.8133 51.7391 27.7719 50.7824 27.6544C49.9851 27.5508 49.5413 26.4313 50.1168 26.0098C50.7616 25.5399 51.3717 24.9733 52.2522 24.8351C53.0633 24.7038 53.8606 24.4412 54.6302 24.1579C55.4275 23.8677 56.2109 23.7088 57.0637 23.8677C58.0967 24.0612 59.0743 23.8746 59.9756 23.3149C60.8907 22.7413 61.8683 22.4304 62.9845 22.4719C63.4144 22.4926 63.9135 22.3682 64.2879 22.154C65.9657 21.2142 67.6574 20.309 69.4808 19.6456C71.3735 18.9615 73.3633 18.5608 75.1728 17.6279C76.6773 16.854 78.265 16.239 79.5545 15.0919C80.948 13.855 82.3693 12.6388 83.8114 11.4572C84.2135 11.1255 84.581 10.8906 84.5394 10.2756C84.5047 9.81951 84.789 9.43255 85.3436 9.33581C86.6054 9.11469 87.8742 8.90738 89.129 8.63098C89.7392 8.49969 90.2661 8.43059 90.8415 8.783C91.1535 8.97649 91.6041 8.96266 92.0548 9.05941C92.3113 7.95379 92.2766 6.97948 92.1102 6.01206C92.0825 5.86695 91.9023 5.75639 91.8607 5.70111C91.2367 5.84622 90.6682 6.15027 90.2175 6.03279C89.7599 5.91532 89.4133 5.37634 88.9557 4.97555C87.8187 4.98937 86.9659 5.70802 86.0716 6.32993C84.7612 7.24206 83.4717 8.18874 82.1544 9.08705C81.5512 9.49474 80.9064 9.83333 80.2547 10.1719C77.8906 11.3812 75.5264 12.5766 73.1553 13.7721C71.6439 14.5322 70.1602 15.3752 68.5934 16.0178C66.7769 16.7641 64.9535 17.4966 63.0954 18.1531C60.7035 19.003 58.2215 19.4729 55.8088 20.2053C55.4622 20.309 55.0808 20.3228 54.7203 20.3919C53.2783 20.6683 51.8015 20.8411 50.3941 21.2488C48.0993 21.9052 45.853 22.7068 43.5859 23.46C42.7955 23.7226 42.5944 24.0612 42.74 24.9042C42.8301 25.4363 42.9688 25.9614 43.0867 26.4866C43.3779 27.7995 43.7453 29.0986 43.9533 30.4253C44.3901 33.2239 44.9933 35.981 45.8807 38.6829C47.191 42.6631 48.7856 46.5534 49.7147 50.6511C50.1029 52.3717 50.3317 54.0854 50.408 55.8544C50.5674 59.344 50.0891 62.8474 50.5952 66.3301C50.616 66.4614 50.6021 66.6065 50.5674 66.7309C50.2624 67.7328 50.6437 68.6657 50.7754 69.792C51.1359 69.5433 51.3925 69.3705 51.6421 69.1977C52.5503 68.5897 53.4724 68.0023 54.3667 67.3735C54.963 66.9589 55.5454 66.5097 56.0931 66.0398C56.3981 65.7773 56.6269 65.4249 56.9112 65.1346C57.3549 64.6786 58.0967 64.4989 58.5404 64.72C59.0673 64.9757 59.2892 65.5078 59.1575 66.2195C59.1505 66.261 59.1297 66.3093 59.1228 66.3508C58.6375 68.1751 58.1938 70.0131 57.0845 71.6094C56.9736 71.7683 56.9528 71.9825 56.8557 72.3004C57.8818 71.9549 58.7346 71.4712 59.6081 71.4159C60.7174 71.3537 61.6464 71.0427 62.5824 70.5245C63.0954 70.2412 63.7264 70.1721 64.2741 69.9371C64.489 69.8473 64.7524 69.5847 64.7663 69.3843C64.7802 69.177 64.5653 68.9006 64.3711 68.7555C64.1215 68.5689 63.7749 68.5136 63.5045 68.3478C63.2965 68.2234 63.1509 68.0092 62.9568 67.8157C64.6069 66.565 66.2084 65.4387 68.1427 64.8582C68.4963 64.7546 68.8221 64.5818 69.1549 64.416C71.117 63.414 73.086 62.4259 75.0272 61.3963C76.1088 60.8227 77.1973 60.498 78.466 60.6638C79.1593 60.7536 79.9636 60.6154 80.6153 60.3529C82.3208 59.6618 83.4578 58.2453 84.6711 56.96C84.8444 56.7804 84.9276 56.2621 84.7959 56.1101C84.3799 55.6471 83.9015 55.1703 83.34 54.9285C83.0141 54.7903 82.4525 55.0183 82.0573 55.2118C81.3571 55.5504 80.6985 55.9719 80.0468 56.3865C79.3534 56.8287 78.6393 57.0015 77.8143 56.7734C77.4885 56.6836 77.0725 56.7043 76.7536 56.8218C76.1088 57.0568 75.4987 57.3815 74.8886 57.6856C72.5105 58.8741 70.8397 60.9264 68.7459 62.4743C66.9086 63.8355 65.1684 65.2659 62.9707 66.0813C62.2773 66.337 61.6464 66.413 60.9601 66.2955C59.927 66.1228 59.4487 65.5009 59.5873 64.4782C59.8716 62.4397 60.7313 60.7951 62.8944 60.0765C63.5392 59.8622 64.1215 59.5306 64.7247 58.7497C64.2463 58.9017 64.0245 58.9363 63.8442 59.0399C62.9637 59.5237 62.0971 60.0281 61.2235 60.5187C60.6481 60.8435 60.0934 60.878 59.5596 60.4358C59.0673 60.035 58.9911 59.5651 59.2407 58.8465C59.6012 57.7961 60.1281 56.8909 61.2443 56.4348C61.4939 56.3312 61.7227 56.1584 61.9446 55.9995C62.8459 55.3569 63.872 55.1841 64.9604 55.2118C65.3279 55.2256 65.73 55.3085 66.0489 55.191C67.6435 54.6037 69.2173 53.9749 70.7842 53.3322C71.4636 53.0558 72.0945 52.6205 72.7948 52.4408C75.1659 51.8535 77.5508 51.3352 79.9358 50.8239C82.508 50.2711 84.7266 49.3106 85.8982 46.74C86.3558 45.7381 86.2449 44.8674 86.023 43.824C85.6417 43.9414 85.3228 43.9898 85.0593 44.1349C83.0973 45.206 81.1491 46.3047 79.194 47.3757C78.7919 47.5969 78.3689 47.8042 77.9322 47.9286C77.5509 48.0391 77.1418 48.0253 76.7397 48.0598C76.1989 48.1013 75.6096 48.0184 75.1312 48.205C74.1953 48.5643 73.3286 49.0756 72.4343 49.5317C71.7826 49.8634 71.1586 50.278 70.4722 50.5129C67.9139 51.4043 65.73 52.8831 63.6293 54.5139C63.137 54.9008 62.5408 55.2325 61.9376 55.3914C60.967 55.6471 59.9617 55.5987 59.2823 54.735C58.8732 54.2167 58.6236 53.5879 58.2839 52.9798C58.6167 52.7311 58.8178 52.5514 59.0465 52.4132C60.9739 51.1901 63.1717 50.6442 65.3418 50.0292C65.7785 49.9048 66.2292 49.8012 66.6521 49.6353C68.8291 48.7785 70.9991 47.9009 73.1761 47.0441C73.4812 46.9266 73.8278 46.8851 74.2438 46.7884C74.1537 47.0372 74.1398 47.1339 74.0843 47.1961C73.9873 47.2928 73.8763 47.3757 73.7515 47.431C70.6039 48.9512 67.3662 50.2227 63.9967 51.197C62.8043 51.5425 61.6464 52.0055 60.5164 52.503C60.1489 52.6689 59.7191 53.0835 59.6567 53.4359C59.5596 53.9403 60.142 54.1062 60.5718 54.2927C61.6534 54.7626 62.52 54.3273 63.3936 53.7399C64.7178 52.8416 66.0281 51.9157 67.4355 51.1556C69.6957 49.9394 72.1015 48.9996 74.3131 47.6867C74.736 47.431 75.2491 47.3066 75.7344 47.1546C75.9909 47.0786 76.2752 47.0372 76.5456 47.0441C76.9962 47.0579 77.4677 47.2375 77.8836 47.1477C78.3135 47.0579 78.674 46.6986 79.09 46.5189C79.4782 46.3531 79.8249 46.1734 80.227 45.7588C79.1663 45.9937 78.3204 46.201 77.4677 46.3738C76.6704 46.5327 75.8869 46.9542 74.7291 46.5396C75.3184 46.2909 75.6235 46.0905 75.9563 46.0283C77.0863 45.8072 78.2164 45.5791 79.3604 45.4409C80.851 45.2613 82.2307 44.7845 83.541 44.0935C84.4076 43.6374 84.4631 43.2435 83.8114 42.518C82.7645 41.3571 82.7645 41.3571 82.4802 40.1755C81.9256 40.3966 81.3918 40.6246 80.844 40.8319C79.4644 41.3433 78.0431 41.7579 76.705 42.359C73.8139 43.6512 70.9645 45.0263 68.0942 46.3669C67.8862 46.4636 67.6643 46.5189 67.4563 46.6156C65.8063 47.3965 63.9135 47.5692 62.3536 48.5988C61.9515 48.8683 61.4177 49.0065 60.9254 49.0756C59.6081 49.276 58.277 49.4142 56.9458 49.5524C56.6477 49.5801 56.3288 49.4833 56.0515 49.4488C55.8088 47.9769 55.8435 47.9907 57.1538 47.6038C57.7501 47.431 58.4572 47.1754 58.8108 46.7331C59.4071 45.973 60.1558 45.5308 60.9947 45.1438C61.3206 44.9918 61.6256 44.7845 61.9307 44.5772C62.6101 44.1211 63.248 43.5821 63.969 43.1952C65.0367 42.6216 66.2153 42.4005 67.4494 42.4558C69.5709 42.5525 71.5468 42.0412 73.4465 41.129C75.2283 40.2791 77.0309 39.4499 78.8889 38.7796C80.6569 38.137 82.3485 37.3631 84.0471 36.5408C83.9847 36.1607 83.9501 35.8497 83.8738 35.5526C83.5687 34.3088 82.4594 33.8735 81.3432 34.5852C80.7262 34.9791 80.123 35.4075 79.5822 35.8912C78.9167 36.4855 78.1471 36.831 77.3013 37.1143C75.9563 37.5634 74.639 38.1093 73.3078 38.6138C71.5052 39.2979 69.7234 39.9751 67.8099 40.3689C66.0628 40.7283 64.385 41.4054 62.6864 41.9652C62.3952 42.0619 62.1387 42.2899 61.8822 42.4765C61.1403 43.0086 60.4262 43.589 59.6567 44.0727C59.206 44.356 58.6722 44.6048 58.1453 44.6877C57.2024 44.8398 56.3565 44.128 56.1693 43.1744C56.0168 42.3798 56.5229 41.7233 57.5629 41.5229C58.2562 41.3916 58.6999 40.9977 59.1505 40.521C60.0865 39.5397 60.9462 38.4618 62.3051 37.9642C64.0869 37.3078 65.9449 36.8932 67.8307 36.8172C69.1688 36.7619 70.3821 36.4924 71.5191 35.8428C72.358 35.373 73.1761 34.8616 74.0219 34.4125C74.5974 34.06 75.2421 33.8182 75.8731 33.5418ZM91.4585 69.0526C90.994 69.3912 90.6404 69.6676 90.2661 69.9095C89.1082 70.6489 87.992 71.4504 86.7787 72.0792C84.9484 73.0328 83.0765 73.9035 81.1838 74.7327C77.946 76.1493 74.7014 77.5589 71.2764 78.5056C70.805 78.6369 70.3751 78.8857 69.9453 79.0722C70.0077 79.2865 70.0077 79.4039 70.0632 79.4385C71.0893 80.1226 72.1223 80.7859 73.1414 81.4769C73.5505 81.7533 74.015 82.0297 74.2854 82.4167C75.6304 84.3239 77.5924 85.7888 78.4175 88.0622C78.5353 88.3801 78.8335 88.6565 79.09 88.9122C80.0953 89.9003 81.1422 90.847 82.1336 91.842C83.5618 93.2793 84.678 94.9032 85.0455 96.9209C85.1772 97.6327 85.5308 98.1509 86.127 98.5724C86.8689 99.0976 87.5899 99.6642 88.2971 100.231C90.2245 101.779 91.5625 103.734 91.7775 106.16C91.9993 108.634 92.6441 111.087 92.1102 113.63C91.7428 115.378 91.2367 117.133 91.3476 118.957C91.3615 119.213 91.2714 119.51 91.1396 119.731C90.5781 120.685 90.7167 121.611 91.1258 122.571C91.4585 123.345 91.4031 124.098 91.098 124.921C90.1482 127.491 89.3232 130.11 88.3941 132.694C87.4582 135.293 87.68 138.022 87.3888 140.689C87.3265 141.263 87.2987 141.85 87.3265 142.431C87.3819 143.771 87.4443 145.112 87.5968 146.439C87.6384 146.77 87.9851 147.157 88.2971 147.344C88.6715 147.565 89.1637 147.675 89.6144 147.717C91.8607 147.91 94.1139 148.097 96.3671 148.221C97.2199 148.27 98.0241 148.373 98.7313 148.85C100.139 149.79 101.754 150.163 103.397 150.453C104.527 150.654 105.671 150.792 106.815 150.951C108.639 151.213 110.455 151.635 112.292 151.704C115.703 151.828 119.128 151.78 122.546 151.745C125.916 151.711 129.285 151.607 132.648 151.524C133.57 151.504 134.492 151.428 135.414 151.407C136.468 151.379 137.529 151.365 138.582 151.379C138.998 151.379 139.408 151.462 139.823 151.497C142.534 151.704 145.238 151.96 147.928 152.43C150.05 152.803 152.241 153.031 154.39 152.989C157.246 152.927 160.096 152.575 162.938 152.284C166.1 151.96 169.261 151.621 172.409 151.186C175.882 150.709 179.335 150.115 182.795 149.583C183.793 149.431 184.791 149.292 185.79 149.14C186.427 149.044 187.058 148.926 187.696 148.829C189.748 148.512 191.801 148.242 193.839 147.862C194.581 147.724 195.274 147.344 195.829 147.136C195.829 145.824 195.836 144.704 195.822 143.592C195.822 143.37 195.815 143.135 195.745 142.928C195.225 141.449 194.699 139.964 194.144 138.499C193.714 137.366 193.215 136.253 192.778 135.12C191.551 131.948 189.679 129.219 187.044 126.98C186.143 126.213 185.2 125.473 184.417 124.596C182.607 122.557 180.285 121.334 177.761 120.388C177.116 120.146 176.458 119.918 175.792 119.766C174.357 119.441 172.936 119.102 171.577 118.529C171.355 118.432 171.043 118.563 170.766 118.57C170.537 118.577 170.273 118.619 170.093 118.522C169.088 117.99 168.09 117.444 167.112 116.863C165.76 116.055 164.366 115.44 162.716 115.585C161.982 115.647 161.191 115.599 160.623 115.067C159.701 114.189 158.688 113.353 157.988 112.317C156.407 109.995 154.646 107.915 152.019 106.657C151.041 106.187 150.334 105.42 149.897 104.425C149.71 103.997 149.523 103.555 148.954 103.14C148.816 104.101 148.726 104.895 148.573 105.683C148.462 106.243 148.337 106.837 148.074 107.334C147.485 108.44 146.493 108.758 145.328 108.205C144.607 107.86 143.949 107.383 143.262 106.968C143.186 107.01 143.096 107.037 143.027 107.093C141.799 108.108 141.363 108.039 140.316 106.851C139.844 106.312 139.297 105.807 138.693 105.42C136.87 104.246 136.433 103.251 136.946 101.226C137.445 99.2566 137.841 97.2734 137.723 95.228C137.702 94.7996 137.619 94.378 137.543 93.7769C136.6 94.0809 135.844 94.3228 135.144 94.5439C134.326 93.9427 133.681 93.4175 133.709 92.3258C133.736 91.386 132.62 90.5913 131.622 90.543C130.609 90.4946 129.722 90.8746 128.835 91.2478C128.37 91.4413 127.919 91.7038 127.441 91.842C126.394 92.1392 125.86 91.7522 125.77 90.695C125.722 90.1076 125.715 89.5203 125.673 88.6634C125.375 89.3959 125.209 89.8658 125.001 90.3149C124.134 92.2083 122.886 93.763 121 94.8203C118.296 96.3267 115.398 97.3494 112.438 98.2269C110.67 98.7521 108.881 99.1598 106.989 98.9594C105.99 98.8558 104.964 98.9387 103.959 98.9871C101.019 99.1253 98.3292 98.2339 95.7085 97.0868C95.5837 97.0315 95.4728 96.9486 95.3688 96.8588C93.4761 95.2694 91.7012 93.5765 90.2383 91.6002C90.0511 91.3514 89.8847 91.0612 89.7946 90.771C89.344 89.313 88.928 87.8411 88.4843 86.3762C88.1515 85.2706 88.2347 84.1442 88.3733 83.0317C88.6853 80.5579 89.5658 78.2361 90.4671 75.9282C90.8276 75.0091 91.306 74.1315 91.7844 73.2678C92.0825 72.7357 92.235 72.2105 92.1865 71.5955C92.1103 70.7525 91.9785 69.9648 91.4585 69.0526ZM158.002 81.2627C158.342 81.9814 158.591 82.6724 158.189 83.4601C158.057 83.7158 158.168 84.1995 158.342 84.4828C159.742 86.7286 160.928 89.1402 163.5 90.4462C164.325 90.8677 164.235 91.4896 163.375 91.9319C163.091 92.077 162.709 92.1392 162.529 92.3603C162.328 92.6022 162.196 93.0098 162.252 93.3001C162.287 93.4728 162.737 93.6387 163.015 93.6732C163.32 93.7078 163.673 93.6456 163.964 93.5281C164.817 93.1757 165.67 93.2171 166.543 93.3968C167.084 93.5074 167.632 93.6041 168.18 93.6663C168.873 93.7492 169.372 94.1224 169.781 94.6337C170.301 95.2902 170.156 95.995 169.337 96.2369C168.651 96.4372 167.895 96.4441 167.167 96.4441C166.62 96.4441 166.072 96.3129 165.531 96.2092C164.041 95.9121 162.557 95.6149 161.073 95.2833C160.775 95.2142 160.477 95.0414 160.227 94.8548C158.654 93.6663 157.011 92.6091 155.104 91.9664C154.736 91.842 154.369 91.5933 154.119 91.3031C153.648 90.7572 153.294 90.1145 152.823 89.5686C151.554 88.0899 150.057 86.8461 148.504 85.6575C148.185 85.4157 147.907 85.1047 147.651 84.8007C147.131 84.1788 146.583 83.6191 145.488 83.2805C145.793 83.9438 146.001 84.3653 146.188 84.8076C146.465 85.471 146.784 86.1274 146.978 86.8115C147.214 87.6338 146.999 87.9379 146.167 88.235C145.002 88.6496 143.852 88.6703 142.652 88.2972C141.411 87.9102 140.51 87.3021 140.26 85.9754C140.198 85.6437 140.246 85.1877 139.602 84.9182C139.74 86.003 139.817 86.9359 139.99 87.848C140.115 88.4976 140.246 89.2162 140.621 89.7345C141.786 91.3514 143.2 92.7887 144.774 94.0325C145.703 94.765 146.729 95.3869 147.755 95.995C150.008 97.3425 151.617 99.2566 152.989 101.419C153.814 102.712 154.73 103.955 155.7 105.158C157.038 106.816 158.584 108.323 159.416 110.326C159.52 110.575 159.673 110.803 159.825 111.031C160.123 111.46 160.512 111.743 161.066 111.805C162.079 111.909 163.084 112.082 164.089 112.13C165.684 112.206 167.216 112.413 168.54 113.381C168.755 113.54 169.032 113.616 169.296 113.706C170.953 114.251 172.61 114.797 174.274 115.322C175.106 115.585 175.938 115.917 176.79 116.034C179.099 116.359 181.269 117.098 183.356 118.045C184.604 118.612 185.748 119.399 186.982 120.007C188.757 120.878 190.456 121.804 191.96 123.11C193.492 124.437 194.796 125.853 195.794 127.629C197.333 130.359 198.408 133.275 199.628 136.136C200.744 138.741 201.507 141.484 202.977 143.951C203.725 145.209 203.219 146.632 201.881 147.233C201.34 147.475 200.751 147.606 200.176 147.758C199.704 147.883 199.205 147.945 198.921 148.518C199.17 148.657 199.358 148.774 199.559 148.857C201.756 149.804 204.01 150.626 206.36 151.117C208.336 151.531 210.333 151.801 212.399 151.352C213.827 151.041 215.331 151.006 216.801 150.951C219.255 150.861 221.689 151.186 224.095 151.635C225.093 151.821 226.071 152.139 227.076 152.243C229.731 152.519 232.387 152.948 235.077 152.63C235.396 152.595 235.721 152.658 236.04 152.658C237.053 152.671 238.072 152.747 239.077 152.671C241.24 152.506 243.389 152.264 245.546 152.049C246.412 151.96 246.842 151.642 246.897 150.799C247.001 149.189 247.154 147.565 246.114 146.114C245.4 145.119 244.783 144.061 244.048 143.087C242.363 140.828 240.318 138.879 238.314 136.903C236.955 135.555 235.597 134.215 234.265 132.839C232.914 131.444 231.617 130.006 230.258 128.611C229.724 128.065 229.073 127.629 228.546 127.07C226.542 124.962 224.518 122.882 222.292 120.989C220.815 119.731 219.664 118.093 217.779 117.299C217.619 117.23 217.508 117.057 217.37 116.939C215.158 115.177 212.939 113.415 210.728 111.66C210.693 111.632 210.658 111.598 210.624 111.577C208.502 110.402 206.783 108.613 204.453 107.756C204.287 107.694 204.141 107.562 203.982 107.473C202.866 106.851 201.77 106.201 200.633 105.614C199.205 104.881 197.687 104.301 196.328 103.465C194.331 102.249 193.055 100.328 191.717 98.4964C190.92 97.3977 190.137 96.2852 189.339 95.1865C188.861 94.5232 188.251 93.9289 187.911 93.2102C187.19 91.6693 186.081 90.4047 184.999 89.1264C184.188 88.1659 183.217 87.309 182.219 86.5282C180.708 85.3535 179.113 84.2893 177.553 83.1768C176.042 82.0988 175.03 80.7445 174.773 78.8718C174.572 77.3793 173.761 76.0802 172.894 74.8709C172.534 74.3665 171.826 73.9795 171.202 73.8068C169.601 73.3783 169.566 73.4198 169.254 71.8305C169.095 71.0358 168.707 70.6627 167.868 70.6005C167.459 70.5729 167.001 70.5383 166.634 70.6903C165.573 71.1257 164.477 71.1257 163.368 71.1188C161.288 71.1049 159.208 71.2086 157.142 71.0911C155.492 70.9944 153.828 70.7594 152.227 70.3586C150.535 69.944 148.899 69.2876 147.256 68.6864C146.243 68.3133 145.28 68.3547 144.281 68.6933C143.567 68.9352 143.2 69.3636 142.971 70.0961C142.68 71.022 142.243 71.9549 141.654 72.7288C140.662 74.021 139.47 75.1681 138.409 76.4119C137.591 77.3793 136.794 78.3743 136.087 79.4247C135.56 80.2055 135.206 81.0831 135.088 82.0574C135.594 82.4444 136.052 82.8175 136.53 83.1699C137.279 83.7158 138.035 83.6743 138.86 83.2528C139.962 82.7 140.503 81.6842 141.078 80.7376C141.425 80.164 141.813 79.8807 142.416 79.7218C142.936 79.5836 143.449 79.4108 143.963 79.2243C144.989 78.858 146.049 78.6438 147.048 79.169C148.296 79.8254 149.495 79.7702 150.764 79.2865C151.568 78.9824 152.379 78.9686 153.149 79.4661C153.454 79.6596 153.821 79.7632 154.168 79.8945C154.702 80.088 155.159 80.3368 155.34 80.938C155.402 81.1384 155.672 81.2835 156.026 81.6221C156.144 81.0969 156.31 80.7652 156.276 80.4473C156.213 79.7632 156.511 79.2174 156.844 78.6784C157.198 78.1048 157.579 77.5382 158.002 77.013C158.723 76.1216 159.527 75.327 160.886 75.5757C161.309 76.6192 160.969 77.4622 160.359 78.2499C159.617 79.2243 158.855 80.1778 158.002 81.2627ZM92.6718 74.1177C92.554 74.1039 92.443 74.0901 92.3252 74.0763C92.0687 74.5461 91.7775 74.9953 91.5695 75.4859C91.2228 76.3151 90.9732 77.1927 90.6058 78.0081C89.8154 79.7563 89.4965 81.6221 89.0805 83.467C88.9834 83.8955 88.9626 84.3792 89.0666 84.8007C89.5312 86.6802 90.0303 88.5459 90.5711 90.4048C90.689 90.8194 90.9802 91.2201 91.2852 91.5449C92.658 92.996 94.0584 94.4264 95.4728 95.8361C95.757 96.1194 96.1245 96.3612 96.4989 96.5133C98.5233 97.3079 100.631 97.8676 102.794 98.0197C104.721 98.1579 106.663 98.0473 108.604 98.0404C108.833 98.0404 109.068 98.0266 109.297 97.9851C112.584 97.377 115.759 96.4372 118.726 94.9308C119.856 94.3573 121.077 93.9151 122.019 92.9753C123.42 91.5795 124.335 89.9763 124.689 88.0553C124.82 87.3505 125.042 86.6595 125.257 85.9754C125.458 85.3258 125.902 84.9182 126.623 84.7869C127.018 84.7109 127.448 84.5865 127.753 84.3446C128.627 83.6536 129.59 83.3358 130.707 83.4532C131.532 83.5431 132.357 83.5983 133.182 83.7089C134.263 83.8471 135.338 84.0268 136.69 84.2271C136.038 83.7158 135.601 83.3288 135.123 83.011C134.111 82.3407 134.076 82.1956 134.409 81.0416C134.887 79.3556 135.899 77.9874 137.036 76.6744C138.374 75.1335 139.692 73.5718 140.988 71.9963C141.467 71.409 141.959 70.794 141.945 69.9095C141.758 69.8473 141.598 69.792 141.425 69.7436C140.558 69.5087 140.579 69.5087 140.531 68.5137C140.517 68.2856 140.309 68.0645 140.184 67.8434C139.754 67.0625 139.872 66.6479 140.655 66.185C140.808 66.0951 140.974 66.0191 141.217 65.9016C141.709 64.0636 142.202 62.1978 142.715 60.339C143.297 58.2107 143.907 56.0893 144.469 53.9541C144.919 52.2543 145.314 50.5475 145.73 48.8407C146.299 46.5189 146.666 44.1695 146.791 41.7786C146.867 40.3482 147.041 38.9178 147.2 37.4874C147.318 36.4578 147.554 35.4421 147.609 34.4194C147.734 32.0907 147.755 29.7551 147.866 27.4264C147.977 25.1806 148.032 22.9279 148.316 20.7029C148.566 18.7335 148.746 16.771 148.691 14.7879C148.67 14.1729 148.469 13.5648 148.365 12.9498C148.289 12.5144 148.129 12.0653 148.192 11.6438C148.462 9.77805 148.781 7.91924 149.107 6.05352C149.308 4.88572 149.308 4.78898 148.164 4.56786C145.55 4.06343 142.978 3.2895 140.281 3.30332C140.052 3.30332 139.817 3.27568 139.588 3.24804C136.302 2.79197 133.015 2.32209 129.722 1.87293C129.174 1.79692 128.62 1.76928 128.065 1.76237C126.269 1.74164 124.46 1.82456 122.671 1.70018C120.931 1.58271 119.205 1.25103 117.464 1.0299C116.279 0.877883 115.059 0.843333 113.901 0.58075C111.363 0.000303984 108.777 -0.0204263 106.205 -0.206998C105.56 -0.255369 104.916 -0.234638 104.271 -0.255369C102.843 -0.310649 101.414 -0.331379 99.9931 -0.448851C99.5771 -0.483401 99.1196 -0.732163 98.8006 -1.01548C98.1489 -1.58901 97.3516 -1.80322 96.5613 -1.9898C95.8888 -2.14182 95.5213 -1.80322 95.7293 -1.18823C95.972 -0.462671 95.8125 0.0348544 95.2024 0.380358C95.7432 0.60839 96.2632 0.829513 96.8386 1.07828C97.31 0.6153 96.693 0.0210342 96.6861 -0.531771C97.5804 -0.987836 97.6012 -1.00857 98.0588 -0.628513C98.3708 -0.36593 98.6134 -0.0273361 98.9254 0.242157C99.8198 1.00226 100.631 1.81765 101.83 2.23226C104.763 3.25495 107.793 3.79393 110.843 4.25691C112.48 4.50567 114.13 4.69915 115.78 4.89263C116.646 4.99628 117.52 5.10684 118.393 5.13449C122.498 5.24505 126.602 5.3487 130.707 5.4178C133.147 5.45926 135.601 5.59746 137.979 4.83044C138.111 4.78898 138.257 4.8028 138.388 4.76825C138.839 4.65769 139.227 4.76134 139.498 5.12758C139.927 5.70802 140.357 6.28847 140.739 6.90346C141.272 7.76722 141.224 8.00907 140.413 8.58261C140.122 8.78991 139.775 8.93502 139.428 9.05941C138.659 9.33581 137.882 9.57766 137.002 9.86097C137.792 9.9508 138.472 9.97154 139.116 10.1236C139.789 10.2825 139.962 10.6004 139.768 11.2223C139.65 11.5954 139.421 11.9478 139.172 12.2657C138.936 12.5697 138.61 12.8047 138.222 13.1571C139.421 12.9498 140.461 12.8047 141.487 12.5835C142.049 12.4661 142.437 12.6596 142.618 13.1087C142.812 13.5993 142.957 14.1383 142.978 14.6566C143.082 17.2617 143.061 19.846 142.5 22.4373C141.896 25.2013 141.584 28.0275 141.127 30.8192C140.94 31.9732 140.669 33.1064 140.517 34.2673C140.323 35.7392 140.267 37.2249 140.038 38.6829C139.817 40.0994 139.401 41.4953 139.179 42.9118C138.742 45.7104 138.381 48.5159 137.986 51.3214C137.938 51.6738 137.882 52.0331 137.813 52.3855C137.515 53.9749 137.196 55.5573 136.912 57.1397C136.607 58.8672 136.315 60.5947 136.052 62.3222C135.927 63.1653 135.788 64.0152 135.816 64.8582C135.892 67.104 135.56 69.2392 134.52 71.2639C134.069 72.1345 133.507 72.5837 132.578 72.4248C131.351 72.2174 130.124 71.941 129.292 70.8838C128.855 70.331 128.28 69.9993 127.559 69.8749C126.054 69.6193 124.592 69.2185 123.177 68.6449C122.907 68.5344 122.546 68.5206 122.255 68.5897C121.694 68.721 121.153 68.9421 120.57 69.1356C121.361 69.8611 122.11 70.5798 122.9 71.257C123.857 72.0792 124.536 73.0674 125.049 74.1937C125.909 76.0733 126.138 78.0979 126.436 80.0811C126.782 82.4098 125.916 84.393 124.009 85.8994C123.267 86.4867 122.532 87.0257 122.248 88.0484C122.012 88.8984 121.451 89.6654 121 90.4462C120.584 91.1649 119.988 91.7038 119.232 92.1115C117.811 92.8855 116.307 93.4521 114.726 93.8045C113.714 94.0256 112.812 94.4402 112.008 95.0829C111.655 95.3662 111.266 95.6149 110.871 95.8568C109.928 96.4303 108.916 96.6169 107.821 96.3405C107.065 96.147 106.274 96.0572 105.519 95.8568C104.902 95.691 104.243 95.5113 103.723 95.1727C101.511 93.7147 99.2652 92.3119 97.518 90.2735C96.2909 88.8431 95.4312 87.2745 95.2995 85.4364C95.2024 84.0959 94.7032 82.9212 94.3011 81.6842C93.8435 80.2746 93.2334 78.9064 93.1017 77.4069C93.0462 76.3151 92.8382 75.2164 92.6718 74.1177ZM97.8716 21.7878C97.6567 20.233 97.4071 18.775 97.2684 17.3169C97.1852 16.4394 97.8716 16.0317 98.7452 16.3841C99.2998 16.6121 99.8337 16.8816 100.34 17.1926C100.998 17.6003 101.636 17.6072 102.309 17.2755C102.746 17.0613 103.168 16.8332 103.695 16.5568C102.96 15.8796 102.42 15.1264 101.685 14.7602C100.596 14.2143 99.3761 13.8895 98.1836 13.5786C97.3447 13.3644 96.4503 13.3298 95.5837 13.2124C93.8435 12.9774 93.8435 12.9774 93.7811 11.2637C93.7673 10.9389 93.7534 10.6142 93.1502 10.6211C93.0254 11.1946 92.8452 11.7889 92.866 12.4108C92.9214 14.2972 93.0462 16.1768 93.0739 18.0632C93.1155 21.1658 93.1086 24.2685 93.0878 27.378C93.0809 28.5458 92.9284 29.7136 92.9076 30.8814C92.866 33.2101 92.9145 35.5457 92.8313 37.8744C92.7134 41.1014 92.5124 44.3215 92.7689 47.5554C92.9353 49.6008 93.0323 51.66 92.9422 53.733C92.8729 55.35 93.0046 56.9669 92.2073 58.4664C92.1241 58.6253 92.0825 58.805 92.0479 58.9778C91.9508 59.5167 92.0617 59.9797 92.6302 60.2008C93.4345 60.5118 93.8366 60.9955 93.4969 61.8731C93.4345 62.0251 93.4969 62.2324 93.5107 62.4052C93.6217 64.1327 94.3843 64.72 96.1176 64.492C97.0258 64.3745 97.9479 64.3331 98.87 64.2916C99.8406 64.2432 100.811 64.1741 101.775 64.2087C102.919 64.2501 104.063 64.3814 105.2 64.5058C106.018 64.5956 106.829 64.8237 107.654 64.8582C109.956 64.955 112.272 64.9411 114.573 65.0655C115.426 65.1139 116.327 65.3143 117.097 65.6736C117.991 66.0951 118.789 66.7378 119.586 67.332C120.099 67.7121 120.667 67.9678 121.257 67.7259C122.304 67.2975 123.247 67.5532 124.203 67.947C124.709 68.1543 125.222 68.3685 125.729 68.5897C126.235 68.8108 126.734 68.9628 127.42 68.562C126.9 67.8088 126.436 67.1178 125.957 66.4268C125.694 66.5443 125.548 66.5788 125.458 66.6618C125.077 67.0073 124.682 67.1662 124.231 66.8069C123.78 66.4475 124.072 66.0882 124.231 65.722C124.668 64.6717 124.813 63.566 124.772 62.3084C124.231 62.2808 123.739 62.2393 123.247 62.2393C122.137 62.2324 121.049 62.2117 119.953 61.9214C117.735 61.3272 115.468 60.954 113.173 60.7467C111.585 60.6016 109.956 60.5049 108.549 59.5375C108.181 59.2887 107.564 59.2403 107.093 59.3094C106.566 59.3855 106.039 59.6411 105.581 59.9244C104.812 60.4012 103.952 60.5463 103.189 60.2354C101.719 59.6342 100.16 59.109 99.1265 57.7961C98.863 57.4575 98.5857 57.188 98.1004 57.2433C96.7415 57.3884 96.0205 56.5247 95.3133 55.6471C96.2909 53.9956 97.102 53.6639 98.8214 54.0716C99.6742 54.272 100.541 54.3964 101.401 54.5553C102.253 54.7211 103.148 54.7833 103.945 55.0805C105.824 55.7784 107.786 55.8475 109.679 55.5365C111.343 55.2601 112.694 55.4605 113.88 56.5938C114.705 57.3746 115.669 57.6579 116.792 57.5266C117.783 57.4092 118.733 57.5612 119.607 58.038C121.097 58.8396 122.671 58.8948 124.3 58.5977C125.056 58.4595 125.576 58.1831 125.645 57.3401C125.68 56.9738 125.944 56.6214 126.103 56.2621C125.805 55.9511 125.555 55.6886 125.306 55.4329C124.252 54.3342 123.316 54.1062 121.999 54.8801C121.077 55.4191 120.272 55.3292 119.385 54.9699C117.901 54.3618 116.431 53.6985 114.913 53.1802C112.362 52.3026 109.727 51.888 107.016 52.3717C105.671 52.6136 104.368 52.5583 103.092 51.9779C102.517 51.7153 101.872 51.584 101.248 51.432C100.069 51.1348 99.1473 50.5406 98.6204 49.435C98.4263 49.0273 98.1905 48.6403 97.9756 48.2464C97.622 47.6107 97.7953 46.7331 98.35 46.3116C98.8561 45.9315 99.487 46.0076 100.021 46.7124C100.756 47.6867 101.726 48.0184 102.891 48.0529C104.638 48.1082 106.378 48.2119 108.126 48.2464C109.297 48.2671 110.441 48.433 111.488 48.9374C112.944 49.6423 114.497 49.7321 116.064 49.7805C116.619 49.7943 117.173 49.8357 117.728 49.815C118.414 49.7943 119.114 49.8012 119.773 49.663C120.654 49.4764 121.506 49.3866 122.373 49.6423C123.344 49.9256 124.3 50.2365 125.264 50.5544C125.652 50.6857 126.027 50.9206 126.505 50.4922C126.595 49.1516 125.326 49.048 124.474 48.4675C123.725 49.1516 123.004 48.9858 122.2 48.5297C121.804 48.3017 121.236 48.2948 120.751 48.3086C120.154 48.3293 119.572 48.5436 118.976 48.5712C117.61 48.6334 116.244 48.6541 114.878 48.6541C114.615 48.6541 114.345 48.5228 114.088 48.4192C112.882 47.9286 111.634 47.6383 110.316 47.6452C109.692 47.6521 109.124 47.514 108.673 47.0648C108.16 46.5604 107.571 46.4774 106.892 46.6847C105.768 47.0302 104.735 46.8022 103.688 46.3047C101.823 45.4202 99.9238 44.6255 98.0241 43.8171C96.9911 43.3817 96.589 42.6838 96.8317 41.5851C96.8871 41.3294 96.9772 41.0876 97.0882 40.7283C99.182 40.673 101.193 40.6453 102.732 42.3314C102.912 42.5318 103.155 42.6769 103.363 42.8566C104.52 43.8378 105.664 44.2939 107.245 43.5199C108.763 42.7805 110.448 42.3798 112.209 42.9118C112.819 43.0984 113.492 43.0777 114.123 43.2159C115.426 43.4992 116.813 43.6443 117.998 44.1833C119.406 44.819 120.751 45.13 122.262 44.7983C122.796 44.6808 123.351 44.6117 123.905 44.5841C124.508 44.5564 124.959 44.4182 125.209 43.8032C125.424 43.285 125.874 43.0984 126.464 43.2919C126.658 43.3541 126.879 43.3334 127.295 43.361C127.067 42.5525 126.879 41.8891 126.637 41.0599C126.006 41.3363 125.486 41.4953 125.035 41.7717C123.344 42.822 121.423 43.0708 119.503 43.3195C118.664 43.4301 117.867 43.285 117.069 42.9671C116.265 42.6493 115.398 42.4765 114.559 42.2277C113.332 41.8615 112.001 41.7026 110.961 40.8872C109.984 40.1133 108.916 39.9751 107.71 40.1409C106.614 40.2929 105.505 40.3828 104.403 40.362C102.108 40.3344 100.014 39.7816 98.5233 37.8882C98.4401 37.7846 98.3431 37.674 98.2321 37.598C97.7122 37.2594 97.6359 36.7135 97.5388 36.1814C97.4764 35.8152 97.421 35.3937 97.837 35.2417C98.0865 35.1449 98.4817 35.2071 98.7244 35.3453C99.2028 35.6217 99.6465 35.7392 100.153 35.4628C100.887 35.0689 101.657 35.0827 102.44 35.3039C104.118 35.7806 105.81 36.1814 107.522 36.5477C109.207 36.9139 110.871 37.0175 112.577 36.7895C113.443 36.672 114.317 36.5684 115.197 36.5269C116.286 36.4786 117.333 36.6651 118.095 37.5151C119.059 38.6 120.175 39.0906 121.659 38.6069C122.699 38.2683 123.76 38.5101 124.8 38.7174C125.34 38.828 125.881 38.98 126.429 39.0146C127.462 39.0837 127.795 38.5309 127.372 37.3769C126.997 37.4045 126.574 37.37 126.193 37.4736C125.077 37.7707 123.995 37.6187 122.914 37.3561C121.978 37.1281 121.042 36.8172 120.085 36.7273C117.811 36.52 115.745 35.6286 113.582 35.0482C112.965 34.8823 112.341 34.6889 111.772 34.3986C110.746 33.8735 109.686 33.6662 108.562 33.9218C107.571 34.143 106.566 34.3434 105.616 34.6819C104.257 35.1656 102.926 34.9791 101.699 34.4746C100.783 34.0946 99.9169 33.8113 98.9324 33.7836C98.1489 33.7629 97.8716 33.4589 97.7746 32.7126C97.7052 32.1321 97.6498 31.5448 97.6567 30.9643C97.6775 30.1282 98.2321 29.4718 98.974 29.4994C100.16 29.5409 101.38 29.5547 102.524 29.8103C103.751 30.0868 104.971 30.218 106.219 30.2042C107.98 30.1835 109.741 30.2388 111.426 30.7778C113.152 31.3375 114.92 31.5379 116.73 31.5517C117.971 31.5586 119.108 31.8419 119.926 32.8646C120.369 33.4243 120.959 33.7214 121.707 33.7767C122.207 33.8182 122.699 33.9771 123.198 34.067C123.829 34.1844 124.467 34.2812 125.105 34.4055C125.569 34.4954 125.944 34.3572 126.186 33.984C126.484 33.5349 126.755 33.065 127.011 32.5813C127.191 32.2358 127.032 31.9248 126.692 31.8143C126.353 31.6968 125.971 31.6899 125.604 31.6622C124.682 31.5931 123.753 31.607 122.851 31.448C121.181 31.1578 119.517 30.7916 118.005 29.9762C117.776 29.8518 117.478 29.8242 117.208 29.7827C116.071 29.61 114.92 29.4787 113.783 29.2783C112.861 29.1124 111.953 29.0295 111.037 29.2161C109.672 29.4994 108.313 29.603 106.919 29.299C106.309 29.1677 105.616 29.2092 104.992 29.3128C103.841 29.5063 102.919 29.0295 101.99 28.532C101.948 28.5113 101.921 28.4767 101.886 28.4422C100.839 27.3711 99.4593 26.8459 98.1073 26.2931C97.4972 26.0444 97.213 25.7127 97.2546 25.0839C97.2754 24.8144 97.2823 24.5449 97.317 24.2754C97.4279 23.3702 97.8161 23.1283 98.7244 23.4116C98.9462 23.4807 99.1542 23.5706 99.3622 23.6604C100.52 24.1786 101.671 24.1855 102.829 23.6604C104.195 23.0385 104.416 23.0661 105.477 24.1441C106.365 25.0424 107.391 25.6781 108.659 25.9407C109.921 26.2033 111.169 26.5142 112.438 26.7561C113.52 26.9634 114.608 27.1569 115.703 27.2743C117.09 27.4195 118.484 27.5024 119.641 28.3731C120.349 28.8982 121.132 29.0779 121.985 28.9189C123.344 28.6702 124.703 28.4145 126.048 28.1312C127.67 27.7857 128.904 26.9496 129.466 25.3464C128.328 24.1856 127.795 24.1234 126.755 25.1668C125.916 26.0098 124.952 26.5695 123.773 26.7492C121.285 27.1292 118.997 26.6524 116.972 25.1391C116.39 24.7038 115.787 24.2961 115.218 23.84C114.365 23.156 113.409 22.9625 112.362 23.1905C111.419 23.3978 110.462 23.5844 109.561 23.9161C108.535 24.2961 107.793 24.0404 107.1 23.2803C106.032 22.1125 104.458 21.6772 103.196 20.7789C102.739 20.4541 102.142 20.4887 101.595 20.7167C101.213 20.8756 100.832 21.0415 100.444 21.1866C99.6603 21.4837 98.9116 21.8499 97.8716 21.7878ZM33.6577 16.9991C33.7063 17.9112 33.8588 18.5608 33.7409 19.155C33.3457 21.152 33.3735 23.149 33.3665 25.1737C33.3665 27.0187 33.2556 28.836 33.5953 30.6672C33.7617 31.5448 33.7756 32.4638 33.734 33.3552C33.6369 35.3453 33.7617 37.3078 34.3025 39.2357C34.5313 40.058 34.663 40.9079 34.8017 41.7509C35.1137 43.5683 35.391 45.3856 35.703 47.203C36.0566 49.2829 36.5419 51.3421 36.5557 53.4773C36.5696 55.1358 36.7707 56.8011 37.0272 58.4388C37.4917 61.4516 38.0671 64.4505 38.5733 67.4633C38.7327 68.3962 38.7812 69.3429 38.9476 70.2688C39.4122 72.8325 39.9807 75.3754 40.3967 77.939C40.9444 81.3042 41.9982 84.5726 42.4488 87.9586C42.4558 88 42.4696 88.0484 42.4835 88.0899C42.8094 89.2715 43.3224 89.5134 44.6813 89.0849C44.7922 87.1432 44.9101 85.1738 45.021 83.2045C45.021 83.163 45.0141 83.1146 45.0141 83.0732C44.9447 81.4148 44.8823 79.7563 44.7991 78.0979C44.7021 76.2598 44.7159 74.401 44.4525 72.5906C44.0018 69.5156 43.5096 66.4545 43.669 63.338C43.7938 60.9748 43.3293 58.6875 42.8579 56.3934C42.3032 53.7054 41.7763 51.0174 41.2494 48.3293C40.9305 46.6986 40.6948 45.054 40.2927 43.4439C39.8905 41.827 39.3428 40.2515 38.8575 38.6552C38.7605 38.3305 38.601 37.985 39.114 37.7016C39.3775 38.3374 39.6409 38.904 39.842 39.4914C40.7641 42.131 41.2771 44.8743 41.8179 47.6038C42.3448 50.2918 42.7331 53.0005 43.3917 55.6609C43.884 57.6648 44.3554 59.6826 44.3485 61.7694C44.3416 62.8474 44.2653 63.9392 44.3832 65.0033C44.5357 66.3301 44.2584 67.6914 44.7437 69.0043C44.8962 69.412 44.813 69.8957 44.8546 70.3448C44.8962 70.794 44.9517 71.2362 45.0141 71.6785C45.1527 72.6528 45.3607 73.6271 45.4162 74.6014C45.4924 75.8591 45.4023 77.1236 45.4647 78.3812C45.534 79.8116 45.2844 81.2696 45.8807 82.9764C46.1927 81.2282 46.5255 79.7909 46.6849 78.326C46.8791 76.5846 46.8444 74.8364 46.7681 73.0812C46.6849 71.2224 46.3244 69.4189 45.9639 67.6223C45.6658 66.1089 45.5202 64.6095 45.5479 63.0754C45.5756 61.5967 45.5202 60.111 45.4508 58.6323C45.3884 57.3332 45.1735 56.0341 45.1666 54.735C45.1527 52.3994 45.2706 50.0638 45.2844 47.7351C45.3122 44.3008 44.9517 40.9286 43.4195 37.7569C41.9566 34.7372 40.8542 31.6001 40.5977 28.2418C40.5214 27.2191 40.4868 26.1895 40.4452 25.1599C40.4105 24.2961 40.3759 23.384 39.5924 22.8312C38.8367 22.2991 38.6703 21.691 39.114 20.8756C37.6581 21.0415 37.3253 21.2626 36.9232 22.3129C36.3963 23.7018 36.3963 25.1253 36.6736 26.5626C36.7984 27.1914 37.0272 27.8202 36.4933 28.6149C36.0496 27.5991 35.7515 26.7561 35.807 25.8716C35.904 24.3929 36.0982 22.9279 36.2507 21.4561C36.3131 20.8894 36.6667 20.5578 37.1936 20.4126C38.2613 20.1224 39.322 19.7147 40.4105 19.6387C42.227 19.5074 43.9464 19.0375 45.6727 18.54C48.5638 17.7108 51.3578 16.6812 53.8329 14.9468C54.5331 14.4562 55.3374 14.0692 56.1416 13.7652C57.861 13.1156 59.5388 12.4039 61.1889 11.5747C62.8181 10.7524 64.593 10.2065 66.3054 9.54311C68.0595 8.86592 69.8413 8.24402 71.5676 7.49773C73.1276 6.82745 74.6182 6.02588 76.1434 5.2796C77.3775 4.67842 78.6532 4.13253 79.8388 3.44843C80.7262 2.93708 81.6344 2.55703 82.6258 2.30136C83.1112 2.17698 83.5133 2.21844 83.9501 2.43956C84.4215 2.6745 84.886 3.00618 85.5655 2.87489C85.3852 1.98349 85.1495 1.20266 84.4562 0.718951C83.7629 1.07137 83.1944 1.47906 82.5565 1.67254C77.5855 3.18585 72.6007 4.64387 67.6297 6.14336C66.0489 6.62015 64.4959 7.16605 62.9221 7.65666C61.5216 8.092 60.1073 8.49969 58.693 8.89356C58.1175 9.0525 57.5282 9.16997 56.9458 9.28053C54.8659 9.6744 52.786 10.0545 50.7685 10.6833C50.2485 10.8491 49.7355 11.0633 49.2086 11.1877C47.5932 11.5678 45.9639 11.8856 44.3554 12.2864C43.3432 12.5421 42.2339 12.7287 41.395 13.2745C40.3689 13.9448 39.2042 14.1936 38.1434 14.7049C36.5973 15.4374 35.1137 16.2459 33.6577 16.9991ZM138.652 11.2914C137.307 10.9735 136.107 11.0702 134.936 11.2568C131.365 11.8303 127.767 11.8925 124.169 11.9547C121.777 11.9962 119.378 11.7889 116.979 11.6783C114.539 11.5678 112.147 11.2983 109.928 10.1305C108.847 9.55693 107.55 9.35654 106.496 8.74845C104.513 7.6152 102.621 6.32993 100.714 5.0723C100.541 4.96173 100.395 4.56786 100.472 4.40893C100.548 4.23618 100.908 4.09106 101.137 4.09798C101.387 4.10489 101.657 4.26382 101.872 4.41584C103.189 5.3487 104.652 5.98442 106.184 6.48886C108.278 7.17987 110.372 7.88469 112.473 8.56188C112.896 8.70008 113.36 8.72081 113.811 8.783C114.677 8.90047 115.565 8.91429 116.404 9.13542C117.846 9.50856 119.295 9.78496 120.778 9.65367C122.532 9.50165 124.273 9.55693 126.02 9.68131C126.935 9.75041 127.864 9.72277 128.786 9.70204C130.304 9.66058 131.823 9.57075 133.341 9.51547C135.206 9.45328 136.981 8.99722 138.735 8.43059C139.165 8.29239 139.602 8.08509 139.595 7.50464C139.588 6.92419 139.22 6.60633 138.742 6.37139C137.965 5.99133 137.154 6.01897 136.308 6.171C134.263 6.54414 132.19 6.63397 130.11 6.57178C126.886 6.48195 123.669 6.3783 120.446 6.27465C119.253 6.23319 118.054 6.2401 116.861 6.12263C115.627 6.00515 114.4 5.7633 113.173 5.58364C112.403 5.46617 111.634 5.34179 110.864 5.23123C109.907 5.09994 108.93 5.06538 107.994 4.85117C106.025 4.40202 104.077 3.84921 102.115 3.35169C100.936 3.04764 99.8406 2.6054 99.0086 1.69327C98.87 1.54125 98.6551 1.45142 98.4124 1.29249C98.1212 2.1908 97.8577 2.99236 97.5666 3.89067C97.8231 4.16017 98.0657 4.49185 98.3847 4.72679C99.6326 5.65274 100.874 6.5856 102.177 7.43554C103.286 8.1611 104.403 8.9212 105.63 9.40491C108.708 10.6142 111.842 11.6714 114.962 12.7839C115.177 12.8599 115.412 12.8807 115.634 12.9429C117.132 13.3644 118.636 13.779 120.127 14.2143C121.187 14.5253 122.227 14.8846 123.295 15.1817C124.183 15.4305 125.112 15.548 125.971 15.8727C128.689 16.8885 131.441 16.6398 134.145 16.0109C135.255 15.7553 136.142 15.9833 137.078 16.3219C137.418 16.4463 137.785 16.8263 137.903 17.1649C138.354 18.4847 138.804 19.8322 138.631 21.2488C138.229 24.6347 137.806 28.0206 137.335 31.3997C137.043 33.4865 136.613 35.5595 136.295 37.6464C135.886 40.3137 135.497 42.9809 135.144 45.6551C134.852 47.8733 134.638 50.1052 134.388 52.3303C134.277 53.3115 134.138 54.2927 134.062 55.2809C133.882 57.5197 133.702 59.7586 133.584 61.9975C133.507 63.4762 133.584 64.9688 133.494 66.4475C133.397 68.1612 132.523 69.412 130.866 70.0961C130.644 70.1859 130.443 70.3241 130.048 70.5383C130.797 70.8769 131.31 71.1809 131.871 71.3468C132.773 71.6163 133.348 71.2915 133.764 70.4968C134.631 68.8453 134.811 67.0556 134.811 65.259C134.811 64.1672 134.908 63.1169 135.151 62.0527C135.393 61.0024 135.546 59.9383 135.733 58.881C135.858 58.1762 135.962 57.4645 136.087 56.7596C136.44 54.7695 136.821 52.7794 137.147 50.7893C137.515 48.5297 137.813 46.2563 138.16 43.9898C138.312 43.0155 138.555 42.055 138.714 41.0807C139.255 37.6602 139.775 34.2397 140.309 30.8192C140.683 28.4214 141.002 26.0167 141.439 23.6258C141.903 21.0967 142.319 18.5746 142.077 15.9971C142.021 15.3821 142.035 14.7464 141.612 14.2903C141.037 14.3663 140.551 14.4631 140.059 14.4907C139.096 14.5391 138.132 14.5806 137.168 14.5806C135.976 14.5736 134.783 14.5253 133.584 14.47C133.362 14.4631 133.105 14.3871 132.946 14.2558C132.793 14.1314 132.641 13.8757 132.662 13.703C132.682 13.5371 132.925 13.3644 133.105 13.2815C133.258 13.2124 133.473 13.2262 133.653 13.2607C135.497 13.5993 136.946 12.7079 138.381 11.7958C138.478 11.7129 138.513 11.5539 138.652 11.2914ZM95.3203 81.553C95.5005 81.4493 95.549 81.4355 95.5698 81.4009C95.6184 81.3249 95.6669 81.2489 95.6946 81.166C96.9426 77.7662 98.8838 74.8847 102.267 73.171C103.397 72.5975 104.631 72.0723 105.872 71.8789C107.543 71.6232 109.27 71.6163 110.968 71.6785C112.792 71.7407 114.677 71.6854 116.32 72.7357C117.132 73.254 117.977 73.71 118.775 74.2421C119.108 74.4632 119.406 74.7742 119.628 75.1059C121.021 77.2134 121.95 79.4592 121.95 82.0297C121.95 83.1699 121.687 84.1511 120.945 85.0218C120.39 85.6783 119.752 86.3002 119.329 87.0326C118.74 88.0761 117.638 88.3732 116.743 88.9467C116.293 89.2369 115.863 88.9329 115.53 88.5805C115.211 88.2419 115.149 87.8688 115.433 87.4818C116.314 86.2794 116.577 84.8491 116.993 83.4809C117.055 83.2805 116.91 83.0248 116.854 82.7484C115.877 83.0455 115.773 83.7987 115.558 84.4621C115.26 85.4019 115.003 86.3624 114.691 87.2952C114.483 87.924 114.379 88.4907 114.871 89.0642C115.19 89.4373 115.281 89.9625 114.878 90.2942C114.15 90.8885 113.443 91.6002 112.334 91.4205C111.675 91.3169 111.065 91.4413 110.455 91.7108C109.866 91.9664 109.249 92.153 108.639 92.3534C107.009 92.8855 105.207 92.153 104.645 90.6328C104.389 89.9418 103.973 89.7552 103.314 89.7206C102.579 89.6792 101.74 89.7621 101.151 89.4443C99.8891 88.7671 98.7383 87.8826 97.5735 87.0395C97.1922 86.7631 96.901 86.3693 96.4018 85.8579C96.6375 87.385 97.0119 88.5736 97.9895 89.4788C99.1889 90.5913 100.361 91.7591 101.699 92.7058C103.404 93.9151 105.193 94.9723 107.418 95.2487C109.193 95.4698 110.691 95.2487 112.07 94.1293C112.923 93.4383 113.887 92.9131 115.045 92.7956C115.586 92.7403 116.119 92.5331 116.646 92.3672C118.692 91.7384 120.251 90.5913 120.966 88.5321C121.208 87.8273 121.749 87.2261 121.735 86.3831C121.416 86.3278 121.167 86.2794 120.855 86.2242C121.784 85.6575 122.428 84.6625 123.69 84.7661C123.801 84.773 123.954 84.6694 124.037 84.5727C125.001 83.4947 125.791 82.2992 125.507 80.8067C125.132 78.8235 124.709 76.8334 124.106 74.9055C123.822 74.0072 123.191 73.1365 122.512 72.4386C121.021 70.9045 119.295 69.6745 117.326 68.6864C114.754 67.3942 112.105 66.7101 109.242 66.8138C107.911 66.8621 106.58 67.0003 105.248 67.1178C103.182 67.2906 101.123 67.4219 99.1196 68.0576C96.7623 68.8039 95.1192 70.3725 93.6009 72.1483C93.275 72.5284 93.1987 72.9499 93.3721 73.4129C93.8435 74.6567 93.9059 75.9627 93.9544 77.2618C94.0168 78.8027 94.8904 80.088 95.3203 81.553ZM182.372 46.9888C181.921 46.4705 181.595 46.0974 181.269 45.7312C180.867 45.2751 180.486 44.743 180.666 44.1487C181.027 42.974 181.165 41.7855 181.304 40.5831C181.346 40.2031 181.623 39.8438 181.782 39.4775C182.136 38.6621 182.489 37.8537 182.85 37.0383C182.233 37.2732 181.782 37.6187 181.359 37.9919C180.423 38.828 179.335 39.4292 178.129 39.7539C175.404 40.4726 172.631 40.901 169.802 40.9079C167.68 40.9148 165.559 40.9079 163.437 40.9356C161.621 40.9563 159.846 40.8457 158.196 39.982C157.974 39.8645 157.628 39.9682 157.142 39.9682C157.399 40.6661 157.579 41.212 157.808 41.7302C158.113 42.4281 158.508 43.0915 158.792 43.8032C159.825 46.436 160.838 49.0825 161.843 51.7222C162.675 53.8919 164.145 55.2463 166.627 55.35C166.904 55.3638 167.174 55.4052 167.452 55.4467C169.171 55.7162 170.863 55.5365 172.492 55.0045C173.927 54.5415 175.369 54.0232 176.548 53.0282C176.79 52.8278 177.082 52.6481 177.38 52.5514C178.253 52.2612 178.85 51.6738 179.39 50.9759C179.716 50.5475 180.132 50.1812 180.493 49.8012C180.493 49.6906 180.507 49.6008 180.493 49.511C180.306 48.3846 180.312 48.3915 181.242 47.818C181.574 47.5969 181.886 47.3412 182.372 46.9888ZM179.591 52.3717C179.64 52.4754 179.689 52.5859 179.744 52.6896C180.243 52.6896 180.749 52.655 181.248 52.6965C182.316 52.7794 182.822 53.5603 182.351 54.4931C181.935 55.3223 181.276 55.8682 180.243 56.0479C178.295 56.3796 176.354 56.7803 174.433 57.2641C171.681 57.9551 168.894 58.19 166.065 58.0864C164.554 58.0311 163.181 57.4852 161.857 56.8425C160.858 56.3588 160.824 55.9788 161.482 55.0874C161.531 55.0252 161.51 54.9215 161.531 54.7972C160.914 54.0094 160.11 53.7192 159.111 54.0232C158.141 54.3204 157.184 54.6521 156.227 54.9699C154.778 55.4605 154.473 56.6905 154.175 57.9412C153.918 59.0192 154.806 59.4407 155.402 60.0212C155.631 60.2423 155.901 60.4151 156.165 60.5947C159.139 62.6332 162.515 62.8267 165.975 62.5848C167.119 62.5019 168.256 62.2877 169.4 62.1149C170.994 61.88 172.603 61.7141 174.177 61.3825C177.109 60.7744 180.014 60.0765 182.933 59.42C185.235 58.9017 187.627 59.2887 189.936 58.6806C190.878 58.4319 191.78 58.1624 192.66 57.7616C193.589 57.3332 193.86 56.5454 193.853 55.654C193.846 54.963 193.582 54.348 193.048 53.8505C191.024 51.964 188.688 50.7202 185.831 50.6166C184.542 50.5682 183.245 50.6235 181.956 50.5889C181.401 50.5751 180.95 50.7271 180.604 51.1279C180.243 51.5356 179.924 51.9571 179.591 52.3717ZM112.008 79.4247C112.008 80.5372 112.029 81.6082 112.001 82.6793C111.98 83.5431 111.849 83.6467 110.961 83.7711C109.679 83.9438 109.554 84.082 109.186 85.2775C109.006 85.8717 108.75 86.4522 108.445 86.9981C108.306 87.2468 108.008 87.5163 107.737 87.5716C106.836 87.7582 106.406 88.4976 105.803 89.0227C105.096 89.6377 105.567 90.7433 106.157 91.1234C107.072 91.7038 108.354 91.6624 109.276 91.0267C109.644 90.771 110.025 90.4462 110.448 90.3633C111.141 90.2251 111.863 90.2596 112.521 90.232C112.889 89.5341 113.332 88.8914 113.575 88.1866C113.991 86.9566 114.386 85.699 114.608 84.4206C114.844 83.0732 115.669 82.161 116.632 81.3111C116.771 81.1867 117.041 81.1936 117.229 81.1453C118.095 82.4927 118.137 82.7138 117.749 83.8125C117.402 84.7938 117.277 85.8579 117.028 87.0326C117.43 86.8184 117.665 86.6802 117.908 86.5628C120.154 85.4917 121.139 83.6605 120.966 81.3111C120.82 79.2657 119.995 77.4069 118.692 75.7761C118.47 75.4997 118.179 75.2579 117.867 75.0713C115.856 73.8828 113.838 72.7012 111.349 72.7841C111.301 72.7841 111.259 72.7703 111.211 72.7633C107.987 72.5077 104.839 72.6804 102.004 74.4356C101.81 74.5531 101.657 74.7327 101.373 74.9815C103.571 74.788 103.578 74.7742 104.791 75.5274C105.172 75.7623 105.498 76.094 105.817 76.405C106.233 76.8057 106.621 77.2342 107.037 77.6764C107.294 77.5106 107.474 77.4415 107.585 77.3171C108.035 76.8057 108.458 76.2737 108.895 75.7554C109.214 75.3754 109.498 74.9538 109.859 74.6222C110.954 73.5995 112.473 73.9242 113.131 75.2372C113.575 76.1285 113.589 76.9578 113.062 77.7939C112.694 78.3605 112.327 78.9271 112.008 79.4247ZM65.3348 80.323C63.4421 80.3852 61.7158 80.7998 60.0102 81.2766C59.8092 81.3318 59.622 81.8708 59.6428 82.1749C59.6913 82.8728 59.3724 83.3841 58.9634 83.8816C58.7762 84.1097 58.5612 84.3239 58.3047 84.5934C59.4417 85.0287 60.0934 85.7888 60.6411 86.7079C61.6326 88.3801 62.1387 90.1422 62.0208 92.077C62.007 92.3465 62.0278 92.616 62.0555 92.8855C62.1456 93.7354 62.2496 93.8943 63.1232 94.0118C63.7194 94.0947 64.1285 94.3158 64.4821 94.7926C64.9674 95.4491 65.4874 96.0917 66.0767 96.6515C66.5273 97.073 67.0681 97.453 67.6435 97.688C68.4408 98.0127 69.3144 98.1509 70.1256 98.4273C71.4012 98.8696 72.5521 99.4638 73.0582 100.839C73.2038 101.247 73.502 101.634 73.8209 101.945C74.2715 102.394 74.5488 102.359 75.2213 101.924C74.7638 101.046 74.3339 100.155 73.8486 99.298C73.0721 97.9298 72.5799 96.5063 72.8017 94.917C72.9196 94.0671 72.5452 93.4314 71.8935 92.9338C71.5676 92.6851 71.214 92.4709 70.8674 92.2566C69.7858 91.6071 68.9608 90.7641 68.323 89.6723C67.7129 88.6358 66.8532 87.7375 66.1113 86.7631C65.6468 86.1551 65.1338 85.5608 64.7732 84.8905C64.3087 84.0406 64.1493 83.1146 64.593 82.1679C64.8356 81.6221 65.0436 81.0347 65.3348 80.323ZM47.1702 81.933C49.1115 80.475 49.5344 78.6231 49.4512 76.5639C49.4304 76.0318 49.4235 75.4928 49.4928 74.9677C49.6176 74.0417 49.784 73.1227 49.9712 72.2036C50.2901 70.6005 49.8533 69.0803 49.4997 67.5532C49.4512 67.3459 49.3472 67.104 49.1947 66.9658C48.6262 66.4614 48.4667 65.9638 48.9936 65.335C49.1254 65.1761 49.1808 64.9204 49.2016 64.7062C49.3126 63.3657 49.4512 62.0251 49.4997 60.6845C49.5483 59.2058 49.4789 57.7201 49.4997 56.2345C49.5275 53.9818 49.3888 51.7498 48.6678 49.587C47.8635 47.1546 47.094 44.7154 46.2828 42.2899C45.749 40.7075 45.0834 39.1735 44.6119 37.5773C43.7661 34.6819 43.2531 31.7175 42.7608 28.7531C42.5112 27.226 42.2894 25.6712 41.4227 24.1786C41.3326 24.4205 41.2494 24.5311 41.2494 24.6416C41.2563 27.2053 41.2702 29.7689 42.0606 32.2427C42.5667 33.8251 43.1976 35.373 43.8008 36.9208C44.5495 38.8418 45.638 40.6592 45.5964 42.8013C45.5964 42.8427 45.6242 42.8842 45.6311 42.9326C45.742 44.1349 45.9292 45.3373 45.957 46.5465C46.0332 49.8703 46.0263 53.194 46.0818 56.5178C46.1095 58.1347 46.2065 59.7448 46.2689 61.3617C46.3313 62.8889 46.3036 64.416 46.4631 65.9293C46.7127 68.2925 47.0385 70.6489 47.4198 72.9983C47.9051 75.9143 47.5516 78.8027 47.1702 81.933ZM157.184 82.1887C157.004 82.168 156.9 82.1334 156.823 82.161C155.492 82.6724 155.18 82.5687 154.293 81.4493C154.078 81.1798 153.78 80.9587 153.489 80.7721C152.462 80.1295 151.36 79.9429 150.202 80.3713C148.975 80.8274 147.776 80.7998 146.583 80.2469C145.807 79.8876 144.954 79.9222 144.351 80.4335C143.616 81.0623 142.77 81.318 141.903 81.6082C141.737 81.6635 141.591 81.7948 141.439 81.8915C142.014 82.0021 142.514 81.9537 142.978 81.8086C143.678 81.6013 144.351 81.6221 145.002 81.9123C146.001 82.3683 147.013 82.8175 147.97 83.3496C148.393 83.5845 148.781 83.9715 149.038 84.3723C149.467 85.0564 150.036 85.5539 150.757 85.8787C152.296 86.5628 153.329 87.696 154.099 89.1333C154.522 89.9211 154.965 90.7848 155.922 91.075C157.496 91.5449 158.772 92.5261 160.165 93.3001C160.38 93.4175 160.616 93.5005 160.935 93.6456C161.011 93.0789 160.983 92.6091 161.15 92.2221C161.33 91.7937 161.69 91.4344 162.051 90.9368C161.579 90.771 161.163 90.619 160.74 90.4669C160.096 90.232 159.59 89.9349 159.701 89.1057C159.735 88.8362 159.562 88.5114 159.409 88.2557C158.841 87.2814 158.217 86.3416 157.662 85.3604C157.232 84.6003 157.038 83.7849 157.191 82.9073C157.246 82.6724 157.191 82.4167 157.184 82.1887ZM177.505 39.0906C180.638 38.4825 183.023 35.2624 183.668 33.1341C183.98 32.1045 183.862 31.5655 182.975 31.0542C181.588 30.2457 180.167 29.4787 178.531 29.2714C176.936 29.0641 175.328 28.836 173.726 28.7807C171.14 28.6909 168.575 29.0226 166.01 29.3266C165.857 29.3474 165.711 29.4718 165.441 29.6238C166.53 30.4806 167.604 31.144 168.686 31.7935C169.067 32.0216 169.49 32.2496 169.767 32.5744C170.19 33.0719 170.689 33.2308 171.327 33.293C172.79 33.4312 174.26 33.5902 175.709 33.8458C176.929 34.06 177.609 34.7856 177.636 35.9741C177.65 36.679 178.066 37.1143 178.454 37.6809C178.142 38.137 177.844 38.5792 177.505 39.0906ZM135.684 93.3623C136.607 93.2102 137.348 92.8785 137.979 92.2014C138.686 91.4413 139.733 91.3791 140.26 92.1599C141.203 93.5488 142.791 93.9358 144.06 94.8203C143.519 94.1362 142.895 93.5557 142.299 92.9407C141.584 92.1875 140.78 91.4827 140.226 90.6259C139.193 89.0435 138.784 87.2468 138.77 85.3742C138.77 84.9942 138.686 84.6141 138.631 84.1511C138.16 84.2824 137.834 84.3723 137.473 84.469C137.667 84.78 137.861 84.9942 137.938 85.2429C138.118 85.8096 138.201 86.3969 137.744 86.9013C137.258 87.4334 136.634 87.5647 135.983 87.3021C135.476 87.1017 134.929 86.8806 134.561 86.5144C132.731 84.7039 130.083 85.2982 128.363 85.8994C128.127 85.9823 127.906 86.2172 127.76 86.4384C127.081 87.468 126.547 88.5459 126.616 89.8312C126.671 90.8954 126.997 91.0958 128.01 90.6881C128.946 90.308 129.895 89.9694 130.838 89.617C131.809 89.2577 132.641 89.4926 133.383 90.1629C134.291 90.9783 135.331 91.6969 135.4 93.0651C135.407 93.1273 135.518 93.1895 135.684 93.3623ZM104.721 86.8806C104.167 87.0465 103.737 87.1847 103.3 87.3021C102.947 87.3989 102.586 87.5163 102.226 87.5302C100.728 87.5924 99.9238 86.39 100.596 85.0978C100.825 84.6625 101.095 84.2341 101.428 83.8678C102.156 83.0524 102.711 83.011 103.578 83.6398C103.834 83.8264 104.063 84.0544 104.319 84.2479C104.784 84.6072 105.255 84.5588 105.727 84.2479C106.406 83.8056 106.725 83.2321 106.51 82.4374C104.728 82.2854 104.728 82.2854 104.964 80.7514C104.243 80.4128 103.494 80.088 102.78 79.708C102.038 79.3072 101.401 78.7613 101.123 77.9666C100.867 77.2272 100.749 76.4395 100.555 75.5965C100.34 75.7485 100.173 75.8314 100.056 75.9489C98.5788 77.4553 97.3586 79.1552 96.6237 81.0969C96.3047 81.933 95.9928 82.9073 96.4226 83.854C96.8941 84.8974 97.518 85.8234 98.558 86.4176C99.2721 86.8253 99.9793 87.2538 100.679 87.6822C101.421 88.1382 102.323 88.0208 103.127 88.4561C104.188 89.0435 104.825 88.4077 104.721 86.8806ZM183.592 45.9177C184.285 45.8072 184.784 45.7795 185.263 45.6482C186.018 45.4409 186.781 45.2336 187.488 44.9158C188.313 44.5426 189.152 44.1349 189.866 43.589C192.334 41.6819 192.792 39.0422 192.508 36.1883C192.459 35.7115 192.321 35.1726 192.029 34.7994C190.449 32.7471 188.043 32.5744 186.122 33.6593C185.436 34.0531 184.951 34.6474 184.861 35.5595C185.131 35.601 185.346 35.6701 185.561 35.6632C186.83 35.6148 187.759 36.3196 188.597 37.0797C189.305 37.7155 189.637 38.6829 189.423 39.5535C188.909 41.6266 187.322 43.0708 184.992 43.133C183.599 43.1675 183.55 43.1468 183.522 44.5219C183.509 44.9089 183.557 45.3027 183.592 45.9177ZM108.001 81.0969C107.821 82.0574 107.772 82.8659 107.515 83.6122C106.912 85.3604 104.874 85.8717 103.376 84.7247C102.801 84.2824 102.461 84.241 102.038 84.5796C101.581 84.9389 101.31 85.6022 101.498 86.0099C101.733 86.5351 102.253 86.5075 102.69 86.4176C103.363 86.2794 104.014 86.0445 104.666 85.8372C105.872 85.4433 106.094 85.5884 106.212 86.8253C106.219 86.8806 106.337 86.9221 106.399 86.9704C107.529 86.5282 108.105 85.6921 108.32 84.5519C108.403 84.1166 108.597 83.6951 108.763 83.2736C109.062 82.4858 109.117 82.4651 109.956 82.5273C110.261 82.548 110.566 82.5342 110.906 82.5342C110.989 82.244 111.058 82.0367 111.107 81.8224C111.349 80.7099 111.349 80.7099 110.296 80.2124C109.588 79.8807 109.547 79.4938 110.164 79.0308C110.31 78.9202 110.462 78.7958 110.628 78.7406C111.779 78.402 112.285 77.5451 112.59 76.4326C112.466 76.1562 112.341 75.8176 112.154 75.5135C111.779 74.8916 111.28 74.7811 110.649 75.1888C110.351 75.3892 110.081 75.6517 109.845 75.9212C109.242 76.5984 108.659 77.2964 108.077 77.9874C107.37 78.8235 106.781 78.8442 106.046 78.0495C105.616 77.5797 105.214 77.0821 104.742 76.6606C103.737 75.7692 102.856 75.6794 101.726 76.3013C101.768 77.6557 102.295 78.6369 103.682 79.2104C104.583 79.5836 105.623 79.8393 106.212 80.7652C106.302 80.9103 106.607 80.9518 106.822 80.9932C107.134 81.0485 107.446 81.0554 108.001 81.0969ZM138.624 93.8321C138.624 94.5646 138.631 95.1865 138.624 95.8084C138.603 97.0177 138.589 98.2131 138.222 99.4017C137.931 100.335 137.896 101.343 137.764 102.318C137.688 102.877 137.841 103.396 138.284 103.79C139.206 104.598 140.122 105.413 141.064 106.194C141.813 106.823 142.597 106.595 142.832 105.662C142.916 105.331 142.846 104.957 142.826 104.598C142.791 103.969 142.618 103.327 142.721 102.725C143.075 100.625 142.493 98.6208 142.104 96.6031C141.792 94.9239 140.635 94.0394 138.624 93.8321ZM73.6961 57.3262C73.3148 57.3608 72.9404 57.3401 72.5937 57.423C70.4514 57.9551 68.316 58.4871 66.1876 59.0607C65.7577 59.1782 65.3626 59.4476 64.9674 59.6688C64.4127 59.9866 63.9066 60.422 63.3173 60.6431C61.5563 61.2995 60.863 62.6954 60.4817 64.3331C60.3569 64.8859 60.5372 65.1968 61.0987 65.3419C61.688 65.5009 62.2427 65.4456 62.8528 65.259C65.4388 64.4644 67.3454 62.6677 69.4184 61.1337C70.9298 60.0143 72.2471 58.6323 73.6961 57.3262ZM153.294 20.5992C153.724 22.4442 153.953 24.151 155.319 25.4985C156.477 26.6386 157.468 27.9446 158.557 29.1608C158.827 29.4648 159.125 29.7689 159.472 29.9762C159.714 30.1213 160.103 30.1973 160.359 30.1144C161.163 29.8449 161.94 29.4787 162.765 29.1332C162.231 28.4352 161.607 27.8479 161.274 27.1362C160.553 25.5952 159.472 24.3307 158.349 23.0799C157.579 22.2162 156.657 21.5528 155.603 21.076C154.958 20.7927 154.286 20.4679 153.294 20.5992ZM85.3228 49.5386C84.2274 50.0776 83.1805 50.582 82.1475 51.1072C81.8632 51.2523 81.6067 51.4527 81.3502 51.6393C80.8718 51.9917 80.4211 52.3855 79.922 52.7034C78.6463 53.5119 77.329 54.0992 75.7829 53.3737C75.256 53.1249 74.6944 53.1871 74.1745 53.4497C73.0721 54.0094 71.9697 54.5691 70.8951 55.1634C69.1827 56.117 67.6158 57.3263 65.6953 57.9274C65.5428 57.9758 65.4388 58.1969 65.2378 58.4249C66.6868 58.0794 67.9763 57.81 69.2451 57.4644C70.7149 57.0637 72.1847 56.7113 73.7169 56.656C74.2161 56.6352 74.7152 56.5039 75.2075 56.3796C76.0949 56.1446 76.9962 55.9166 77.8559 55.5987C78.6671 55.2947 79.5198 54.9837 80.1993 54.4862C81.5235 53.5188 82.7714 52.4408 83.9778 51.3421C84.5324 50.8377 84.99 50.2158 85.3228 49.5386ZM106.788 18.0563C107.807 19.1481 109.041 19.7216 110.483 20.0257C111.96 20.3366 113.52 20.6269 114.816 21.3248C117.069 22.5271 119.53 23.1214 121.853 24.0957C122.165 24.227 122.664 24.2961 122.907 24.1441C124.037 23.4254 125.112 22.6239 126.429 21.691C125.382 21.6081 124.605 21.4975 123.829 21.4975C121.187 21.4906 118.497 21.4561 116.126 20.233C113.18 18.7128 109.921 18.7128 106.788 18.0563ZM176.485 35.6217C176.063 35.2969 175.785 34.9238 175.439 34.8409C174.371 34.5921 173.275 34.4125 172.18 34.3088C171.813 34.2743 171.23 34.4263 171.071 34.6889C170.516 35.5733 169.837 36.3058 168.894 36.7895C169.719 38.2199 170.87 38.8971 172.437 38.9247C172.991 38.9385 173.539 39.0422 174.094 39.0491C175.064 39.056 175.945 38.8073 176.617 38.1093C176.312 37.4529 175.459 37.3009 175.494 36.4786C175.744 36.2574 176.014 36.0294 176.485 35.6217ZM159.513 39.5052C160.214 40.0096 160.948 40.1547 161.663 40.1547C164.519 40.1755 167.382 40.1478 170.246 40.1063C171.209 40.0925 172.173 39.982 173.137 39.9198C172.901 39.7816 172.679 39.7816 172.45 39.7816C171.036 39.8023 169.823 39.4015 168.901 38.2959C168.61 37.9504 168.207 37.6878 167.937 37.3285C167.576 36.8448 167.126 36.7757 166.599 36.907C165.081 37.287 163.541 37.6118 162.058 38.0817C161.156 38.3788 160.262 38.752 159.513 39.5052ZM94.3704 -0.172448C93.1987 -0.600872 92.3182 -0.649243 91.3961 -0.607782C90.4325 -0.559412 89.4688 -0.566322 88.4981 -0.587052C87.5206 -0.607782 86.6054 -0.462671 85.7734 0.145416C85.9121 0.59457 86.03 0.974624 86.1478 1.36159C86.5707 2.75051 86.9035 2.98545 88.4149 2.99927C88.9141 3.00618 89.4965 2.91635 89.9055 3.12366C91.7359 4.04269 93.4275 2.97854 95.1747 2.84034C95.348 2.82652 95.653 2.43956 95.6184 2.28063C95.5629 2.01804 95.3272 1.72091 95.0776 1.59653C94.8765 1.49288 94.5299 1.56198 94.2803 1.63799C93.2681 1.94894 92.2697 2.28063 91.2714 2.61922C90.7652 2.79197 90.3007 2.88871 89.9402 2.30136C90.3354 1.45833 91.1674 1.25794 91.9161 0.940073C92.658 0.62221 93.3859 0.276707 94.3704 -0.172448ZM57.9373 65.9984C57.757 66.1089 57.5906 66.1781 57.4797 66.2955C56.5021 67.256 55.3928 68.0369 54.1449 68.6449C53.1951 69.1148 52.37 69.7713 51.7322 70.6074C50.9695 71.6094 51.1983 72.3764 52.4047 72.791C53.1673 73.0536 53.9785 73.1987 54.8382 73.4198C56.0168 71.0013 57.9095 68.9213 57.9373 65.9984ZM181.228 53.7192C180.52 53.6155 179.779 53.657 179.203 53.3737C178.69 53.1249 178.337 53.1871 177.921 53.4013C177.553 53.5879 177.22 53.8298 176.867 54.044C174.232 55.6402 171.431 56.656 168.256 56.5178C166.585 56.4418 164.949 56.3036 163.41 55.5849C163.042 55.4122 162.709 55.4605 162.571 55.9788C164.013 56.732 165.51 57.1328 167.07 57.2571C169.58 57.4645 172.034 56.9807 174.475 56.497C176.277 56.1377 178.045 55.6195 179.834 55.1634C180.104 55.0943 180.375 55.039 180.631 54.9423C181.11 54.7557 181.352 54.4171 181.228 53.7192ZM146.916 99.3878C145.717 99.9959 145.529 101.171 145.273 102.304C145.044 103.299 144.829 104.308 144.538 105.289C144.268 106.222 144.628 106.947 145.626 107.258C146.528 107.542 147.249 107.169 147.554 106.263C147.609 106.098 147.63 105.911 147.658 105.738C147.866 104.46 148.067 103.175 148.268 101.896C148.441 100.791 148.039 100.024 146.916 99.3878ZM71.3111 86.8046C71.6994 86.6111 72.0668 86.4245 72.4343 86.2449C72.9334 86.003 73.1068 85.6368 72.8364 85.1393C72.6908 84.8698 72.5313 84.5796 72.3095 84.3723C71.3458 83.474 70.3682 82.5964 69.3699 81.7257C68.7459 81.1867 68.0526 80.7583 67.0611 80.6546C66.9502 81.0554 66.7006 81.4562 66.763 81.7948C66.9364 82.7138 67.1582 83.6467 67.5395 84.4966C67.7406 84.9389 68.2744 85.2913 68.7389 85.5539C69.5293 86.0169 70.3751 86.3624 71.3111 86.8046ZM183.855 41.7095C184.68 42.4489 185.485 42.4281 186.254 41.9928C186.836 41.6611 187.412 41.2534 187.849 40.7559C188.653 39.8438 188.646 38.7865 187.967 37.9159C187.176 36.8932 185.866 36.4855 184.784 36.9139C184.091 37.1903 183.633 37.7431 183.814 38.3512C184.153 39.4706 184.063 40.5693 183.855 41.7095ZM141.023 84.9803C141.037 85.775 141.168 86.5558 141.917 86.9912C143.013 87.6269 144.184 87.9655 145.467 87.5233C146.167 87.2814 146.292 87.0879 146.035 86.4384C145.668 85.5193 145.252 84.621 144.85 83.7158C144.794 83.5983 144.718 83.4601 144.607 83.3979C143.761 82.935 142.853 82.7553 141.959 83.163C141.217 83.5085 141.016 84.2202 141.023 84.9803ZM105.713 7.21442C105.685 7.29734 105.65 7.38026 105.623 7.47009C106.295 7.7534 106.961 8.04363 107.633 8.32003C108.909 8.83828 110.206 9.31508 111.46 9.86788C112.743 10.4345 114.109 10.6695 115.475 10.7731C117.95 10.9597 120.446 10.9804 122.928 11.0702C123.524 11.091 124.127 11.1255 124.723 11.0979C126.796 11.008 128.862 10.8975 130.935 10.78C131.275 10.7593 131.608 10.6902 131.948 10.6487C131.261 10.4691 130.582 10.393 129.923 10.4829C128.266 10.704 126.616 10.6625 124.952 10.5243C123.808 10.4345 122.65 10.393 121.506 10.4898C120.154 10.6004 118.837 10.5382 117.513 10.2825C115.981 9.99227 114.476 9.5362 112.882 9.5362C112.299 9.5362 111.71 9.31508 111.141 9.1216C109.332 8.5066 107.522 7.85705 105.713 7.21442ZM60.3014 59.5997C61.2443 59.807 61.695 59.1436 62.3051 58.8948C64.7802 57.9067 67.0681 56.5661 69.4045 55.3154C69.765 55.1219 70.1117 54.8939 70.4653 54.6728C70.7565 54.4862 71.0407 54.2927 71.3319 54.0992C70.7703 54.1614 70.3266 54.4033 69.8552 54.5899C68.0734 55.3085 66.3332 56.117 64.3087 56.0617C63.6085 56.041 62.8181 56.2966 62.215 56.6491C61.1473 57.2779 60.2113 58.0864 60.3014 59.5997ZM168.672 33.445C168.554 33.2654 168.492 33.0788 168.36 32.989C167.07 32.1321 165.809 31.2407 164.47 30.4599C163.229 29.7412 162.106 29.9693 160.935 31.0196C162.793 32.3325 164.928 33.0166 167.063 33.6938C167.549 33.8458 168.145 33.8666 168.672 33.445ZM143.928 103.658C143.976 103.665 144.018 103.665 144.067 103.672C144.226 103.023 144.469 102.38 144.517 101.723C144.593 100.625 145.141 99.7748 145.807 98.9525C146.022 98.683 146.264 98.4342 146.493 98.1786C145.779 97.5843 145.113 97.0315 144.455 96.4787C143.81 95.9328 143.165 95.3869 142.437 94.7719C142.832 96.3267 143.29 97.7156 143.526 99.1391C143.768 100.625 143.803 102.145 143.928 103.658ZM163.548 94.7719C163.812 94.8756 164.006 94.9999 164.2 95.0138C165.386 95.0967 166.571 95.1174 167.715 95.5527C168.055 95.684 168.547 95.7255 168.783 95.228C168.637 94.6199 168.09 94.5024 167.618 94.461C166.28 94.3297 164.907 93.77 163.548 94.7719ZM166.959 36.0985C165.725 35.3522 165.316 35.3108 164.262 35.8152C163.645 36.1054 163.028 36.3956 162.432 36.7273C162.141 36.8863 161.891 37.1281 161.621 37.3285C161.649 37.3769 161.676 37.4252 161.704 37.4736C163.437 37.0176 165.171 36.5615 166.959 36.0985ZM157.503 80.3575C158.661 79.4454 159.298 78.3121 160.054 77.2894C160.172 77.1305 160.089 76.8334 160.103 76.5501C158.945 76.9992 158.862 76.9716 158.619 77.5658C158.272 78.4434 157.281 79.0653 157.503 80.3575ZM118.962 68.2373C117.035 66.2471 115.384 65.7842 113.395 65.8049C115.107 66.5512 116.903 67.3389 118.962 68.2373ZM182.281 45.2613C182.157 43.4646 182.434 41.9859 182.919 40.5348C183.003 40.2929 182.933 40.0027 182.933 39.7332C182.496 40.1685 182.268 40.6453 182.136 41.136C181.935 41.9099 181.789 42.6976 181.658 43.4854C181.553 44.0451 181.415 44.6325 182.281 45.2613ZM80.3449 51.5149C78.6601 51.1141 77.4677 52.1852 75.7829 52.2681C77.6687 53.1457 78.9444 52.4685 80.3449 51.5149ZM50.8101 72.9706C51.1359 73.482 51.2607 73.945 51.5103 74.0279C52.3423 74.3112 53.0495 75.0022 54.0617 74.8778C54.3113 74.173 53.8329 73.945 53.3684 73.7722C52.6404 73.5096 51.8916 73.3092 50.8101 72.9706ZM149.987 100.632C149.759 99.4569 149.405 98.6899 148.927 98.4135C148.788 98.3306 148.545 98.4204 148.351 98.4342C149.19 98.9871 148.455 100.535 149.987 100.632ZM135.144 85.2844C135.47 85.7888 135.809 86.1412 136.274 86.2863C136.475 86.3485 136.745 86.1827 136.988 86.1205C136.919 85.8856 136.925 85.5746 136.766 85.4295C136.322 85.0425 135.788 85.1531 135.144 85.2844ZM167.195 34.7925C167.888 35.1173 168.325 35.3868 168.811 35.5319C169.164 35.6424 169.455 35.3799 169.435 35.0344C169.421 34.8547 169.143 34.5368 168.984 34.5437C168.464 34.5507 167.951 34.675 167.195 34.7925ZM51.1983 96.6998C51.1359 95.9121 51.0458 95.1312 50.5397 94.4817C50.4496 95.3109 50.3248 96.1401 51.1983 96.6998ZM160.117 38.2268C160.075 38.1163 160.033 38.0126 159.992 37.902C159.347 38.0955 158.709 38.2959 158.064 38.4894C158.862 38.8211 159.534 38.7105 160.117 38.2268ZM90.2869 -1.3748C91.306 -1.3748 92.3182 -1.3748 93.483 -1.3748C92.3044 -2.03817 91.2991 -1.43008 90.2869 -1.3748ZM45.4231 97.4254C45.5063 97.4599 45.5895 97.5014 45.6796 97.5359C46.2481 96.8864 46.2481 96.8864 45.9847 95.9397C45.7906 96.4511 45.6103 96.9417 45.4231 97.4254ZM147.498 97.0868C146.992 96.6515 146.431 96.3198 145.557 96.1125C146.632 97.0315 146.632 97.0315 147.498 97.0868ZM86.4252 4.10489C85.7526 4.02196 85.0871 3.93904 84.4146 3.84921C85.0247 4.42966 85.711 4.36747 86.4252 4.10489ZM126.685 85.8994C125.992 86.3693 126.145 86.9635 126.145 87.5025C126.311 87.0188 126.477 86.5282 126.685 85.8994ZM57.1122 76.3635C57.1608 76.246 57.2024 76.1976 57.1954 76.17C57.0984 75.9489 57.0013 75.7278 56.8834 75.5135C56.8834 75.5066 56.6616 75.5965 56.6616 75.6034C56.7378 75.8314 56.821 76.0594 56.9112 76.2806C56.925 76.3151 56.9874 76.3151 57.1122 76.3635ZM142.715 67.8088C142.673 67.6914 142.645 67.6153 142.618 67.5393C142.514 67.5877 142.396 67.6292 142.306 67.6983C142.285 67.719 142.347 67.8434 142.375 67.9194C142.493 67.8848 142.604 67.8503 142.715 67.8088Z" fill="#874D00"/>
</g>
</svg>
