<svg width="24" height="16" viewBox="0 0 24 16" fill="none" xmlns="http://www.w3.org/2000/svg">
<path d="M23.2326 16H0.767391C0.343547 16 0 15.596 0 15.0977V0.902307C0 0.404002 0.343547 0 0.767391 0H23.2326C23.6564 0 24 0.403946 24 0.902307V15.0977C24 15.596 23.6565 16 23.2326 16Z" fill="#5EA570"/>
<path d="M23.139 0H22C22.4755 0 22.861 0.403946 22.861 0.902307V15.0977C22.861 15.596 22.4755 16 22 16H23.139C23.6145 16 24 15.596 24 15.0977V0.902307C24 0.404002 23.6145 0 23.139 0Z" fill="#528E61"/>
<path d="M21.324 10.8935C21.3892 10.8882 21.4391 10.8338 21.4391 10.7684V5.23147C21.4391 5.16617 21.389 5.1117 21.324 5.10636C20.6482 5.05091 20.1096 4.51152 20.0552 3.83544C20.05 3.77159 19.9969 3.72266 19.9328 3.72266H4.06936C4.00406 3.72266 3.94959 3.77272 3.94425 3.83778C3.88884 4.51273 3.35062 5.05095 2.67567 5.10636C2.61047 5.1117 2.56055 5.16608 2.56055 5.23147V10.7684C2.56055 10.8337 2.61061 10.8882 2.67567 10.8935C3.35062 10.949 3.88884 11.4872 3.94425 12.1621C3.94959 12.2273 4.00397 12.2772 4.06936 12.2772H19.9303C19.9956 12.2772 20.05 12.2272 20.0554 12.1621C20.1108 11.4872 20.649 10.949 21.324 10.8935Z" fill="#8BC852"/>
<path d="M21.3245 5.10631C20.6487 5.05086 20.1101 4.51147 20.0557 3.83544C20.0506 3.77159 19.9974 3.72266 19.9333 3.72266H18.7105C18.7746 3.72266 18.8278 3.77159 18.8329 3.83544C18.8873 4.51151 19.4259 5.05086 20.1017 5.10631C20.1668 5.11165 20.2168 5.16612 20.2168 5.23142V10.7684C20.2168 10.8338 20.1669 10.8881 20.1017 10.8935C19.4267 10.9489 18.8885 11.4871 18.8331 12.1621C18.8278 12.2271 18.7733 12.2772 18.708 12.2772H19.9308C19.9961 12.2772 20.0506 12.2271 20.0559 12.1621C20.1113 11.4871 20.6495 10.9489 21.3245 10.8935C21.3897 10.8881 21.4396 10.8338 21.4396 10.7684V5.23142C21.4396 5.16612 21.3896 5.11165 21.3245 5.10631Z" fill="#7DBE3B"/>
<path d="M12 13C14.7614 13 17 10.7614 17 8C17 5.23858 14.7614 3 12 3C9.23858 3 7 5.23858 7 8C7 10.7614 9.23858 13 12 13Z" fill="#CBE7AF"/>
<path d="M12.4912 3C12.3252 3 12.1614 3.01026 12 3.02966C14.259 3.30112 16.0176 5.42269 16.0176 8C16.0176 10.5773 14.259 12.6989 12 12.9703C12.1614 12.9897 12.3252 13 12.4912 13C14.9813 13 17 10.7614 17 8C17 5.23859 14.9813 3 12.4912 3Z" fill="#AAD880"/>
<path d="M12.2742 11V10.5544C13.3779 10.4611 14 9.91537 14 9.038C14 8.28843 13.5501 7.82902 12.6503 7.63558L12.2742 7.56304V6.27461C12.6503 6.32642 12.9174 6.59585 12.9279 6.92401H13.9051C13.891 6.12953 13.2583 5.56304 12.2742 5.47668V5H11.7786V5.47323C10.7241 5.55613 10.1054 6.1019 10.1054 6.94819C10.1054 7.66667 10.5589 8.14681 11.406 8.34024L11.7786 8.4266V9.77375C11.3322 9.72539 11.0299 9.46287 11.0053 9.10363H10C10.0035 9.94991 10.6749 10.4957 11.7786 10.5579V11H12.2742ZM13.0053 9.14853C13.0053 9.51468 12.7346 9.74957 12.2742 9.7772V8.51295C12.7733 8.60967 13.0053 8.81347 13.0053 9.14853ZM11.1213 6.86183C11.1213 6.53368 11.3954 6.29188 11.7786 6.27116V7.46287C11.3497 7.37306 11.1213 7.1658 11.1213 6.86183Z" fill="#528E61"/>
</svg>
