<svg width="178" height="180" viewBox="0 0 178 180" fill="none" xmlns="http://www.w3.org/2000/svg">
<path d="M66.8254 179.345L44.8689 157.415L22.9124 179.345L0.303711 156.547L1.82545 155.027L23.1298 176.305L45.0863 154.376L67.0428 176.305L88.9993 154.376L110.956 176.305L132.912 154.376L154.869 176.305L176.173 155.027L177.695 156.547L154.869 179.345L132.912 157.415L110.956 179.345L88.9993 157.415L66.8254 179.345ZM110.956 157.415L88.9993 135.486L66.8254 157.415L44.8689 135.486L22.9124 157.415L0.303711 134.618L1.82545 133.098L23.1298 154.376L45.0863 132.446L67.0428 154.376L88.9993 132.446L110.956 154.376L132.912 132.446L154.869 154.376L176.173 133.098L177.695 134.618L154.869 157.415L132.912 135.486L110.956 157.415ZM66.8254 135.486L44.8689 113.557L22.9124 135.486L0.303711 112.688L1.82545 111.168L23.1298 132.446L44.8689 110.517L66.8254 132.446L88.9993 110.517L110.956 132.446L132.912 110.517L154.869 132.446L176.173 111.168L177.695 112.688L154.869 135.486L132.912 113.557L110.956 135.486L88.9993 113.557L66.8254 135.486ZM110.956 113.557L88.9993 91.41L66.8254 113.557L44.8689 91.41L22.9124 113.557L0.303711 90.7586L1.82545 89.2387L23.1298 110.517L45.0863 88.5873L66.8254 110.517L88.7819 88.5873L110.956 110.517L132.912 88.5873L154.869 110.517L176.173 89.2387L177.695 90.7586L154.869 113.557L132.912 91.41L110.956 113.557ZM66.8254 91.41L44.8689 69.4805L22.9124 91.41L0.303711 68.8291L1.82545 67.3092L23.1298 88.5873L45.0863 66.6579L67.0428 88.5873L88.9993 66.6579L110.956 88.5873L132.912 66.6579L154.869 88.5873L176.173 67.3092L177.695 68.8291L154.869 91.41L132.912 69.4805L110.956 91.41L88.9993 69.4805L66.8254 91.41ZM154.869 69.4805L132.912 47.551L110.956 69.4805L88.9993 47.551L66.8254 69.4805L44.8689 47.551L22.9124 69.4805L0.303711 46.8996L1.82545 45.3798L23.1298 66.6579L45.0863 44.7284L67.0428 66.6579L88.9993 44.7284L110.956 66.6579L132.912 44.7284L154.869 66.6579L176.173 45.3798L177.695 46.8996L154.869 69.4805ZM66.8254 47.551L44.8689 25.6215L22.9124 47.551L0.303711 24.9702L1.82545 23.4503L23.1298 44.7284L45.0863 22.7989L67.0428 44.7284L88.9993 22.7989L110.956 44.7284L132.912 22.7989L154.869 44.7284L176.173 23.4503L177.695 24.9702L154.869 47.551L132.912 25.6215L110.956 47.551L88.9993 25.6215L66.8254 47.551ZM110.956 25.6215L88.9993 3.69207L66.8254 25.6215L44.8689 3.69207L22.9124 25.6215L0.303711 3.0407L1.82545 1.52084L23.1298 22.7989L44.8689 0.652344L66.8254 22.5818L88.9993 0.652344L110.956 22.5818L132.912 0.652344L154.869 22.5818L176.173 1.30371L177.695 2.82358L154.869 25.6215L132.912 3.69207L110.956 25.6215Z" fill="#874D00"/>
</svg>
